<svg width="24" height="24" viewBox="0 0 24 24" fill="none" xmlns="http://www.w3.org/2000/svg">
<g clip-path="url(#clip0)">
<path d="M23.5151 2.87947C23.4702 2.76586 23.3668 2.68591 23.2455 2.67108C23.1245 2.6563 23.0046 2.70897 22.9337 2.80841C22.5125 3.39893 21.9598 3.59577 21.3196 3.82373C20.8033 4.00762 20.2695 4.19763 19.6925 4.61187C18.8765 5.19766 18.5033 5.99619 18.6894 6.75305L18.6695 6.77855C18.3288 6.28426 17.9581 5.82707 17.5668 5.41884C15.7364 3.50888 13.1787 2.36062 10.5493 2.26856C10.4335 2.26451 10.3157 2.26245 10.1994 2.26245C7.26341 2.26245 4.4532 3.57494 2.48941 5.8633C0.5359 8.13982 -0.329964 11.1033 0.11394 13.9939C0.151053 14.2355 0.197499 14.4797 0.252112 14.7197C0.974137 17.8977 2.81826 20.3152 5.31168 21.3523C5.92631 21.608 6.54628 21.7375 7.15413 21.7375C8.66435 21.7375 9.98345 20.9298 10.7733 19.5214C11.0735 18.9855 11.2673 18.4313 11.3489 17.874C11.397 17.5451 11.3641 17.2165 11.3322 16.8981C11.2994 16.5703 11.2684 16.2605 11.318 15.9486C11.4317 15.2336 11.9311 14.8067 12.654 14.8067C12.8596 14.8067 13.0697 14.8406 13.2796 14.9074C13.0339 15.358 12.8108 15.7882 12.6158 16.187C12.2026 17.0321 11.9176 17.732 11.7685 18.2671C11.6765 18.597 11.4322 19.4739 12.0279 19.8873C12.2171 20.0186 12.4569 20.065 12.7065 20.0185C12.9315 19.9767 13.616 19.8496 15.561 17.6353C16.083 17.0411 16.6455 16.3535 17.2335 15.5911C18.7429 15.0828 19.9175 13.8177 20.2282 12.364C20.306 12.0006 20.3384 11.6117 20.3246 11.2077C20.8897 10.3343 21.3854 9.51942 21.8842 8.64339C21.8938 8.6265 21.9032 8.6085 21.9125 8.59006C22.6365 8.39177 23.26 7.82837 23.626 7.04051C24.1604 5.89063 24.121 4.4128 23.5151 2.87947ZM15.3553 8.32438C15.0934 8.74023 14.6433 8.98852 14.1512 8.98852C13.8839 8.98852 13.6225 8.9129 13.3953 8.76979C13.0741 8.56745 12.8507 8.25216 12.7666 7.88198C12.6825 7.5118 12.7474 7.13095 12.9498 6.80966C13.2117 6.39382 13.6619 6.14553 14.154 6.14553C14.4213 6.14553 14.6827 6.22114 14.9098 6.36432C15.2311 6.56654 15.4544 6.88183 15.5385 7.25207C15.6226 7.6223 15.5575 8.00309 15.3553 8.32438ZM17.2001 10.8996C17.9187 9.84088 18.6786 8.78846 19.4004 7.85231C19.5175 7.95798 19.6483 8.06121 19.79 8.15954C20.0249 8.32249 20.2705 8.4485 20.5214 8.53478C19.912 9.57693 19.2567 10.6094 18.4634 11.7779C17.1598 13.6986 15.8044 15.4827 14.6468 16.8017C14.0003 17.5384 13.4344 18.1072 12.9984 18.4595C13.1667 17.9211 13.4883 17.1822 13.9359 16.3068C14.7363 14.7414 15.8956 12.8211 17.2001 10.8996ZM4.58382 10.8905C4.31653 10.8905 4.05513 10.8149 3.82785 10.6717C3.50661 10.4695 3.28333 10.1543 3.19921 9.78399C3.1151 9.41375 3.18021 9.03291 3.38261 8.71162C3.64434 8.29583 4.09447 8.04754 4.5866 8.04754C4.85394 8.04754 5.11534 8.12315 5.34257 8.26633C6.0057 8.68401 6.20549 9.56331 5.78808 10.2263C5.52607 10.6422 5.07589 10.8905 4.58382 10.8905ZM3.09388 14.0204C3.35572 13.6045 3.80579 13.3562 4.29798 13.3562C4.56521 13.3562 4.82655 13.4318 5.05389 13.575C5.37512 13.7772 5.59841 14.0925 5.68252 14.4627C5.76669 14.8328 5.70158 15.2136 5.49913 15.535C5.2374 15.9508 4.78727 16.1991 4.29514 16.1991C4.02785 16.1991 3.7664 16.1235 3.53906 15.9803C3.21783 15.778 2.9946 15.4628 2.91054 15.0926C2.82654 14.7224 2.8917 14.3416 3.09388 14.0204ZM7.64582 5.57873C7.90766 5.16288 8.35779 4.9146 8.84991 4.9146C9.11709 4.9146 9.37849 4.99021 9.60572 5.13333C10.2689 5.5509 10.4687 6.43026 10.0512 7.0934C9.78928 7.5093 9.33915 7.75759 8.84702 7.75759C8.57979 7.75759 8.31839 7.68197 8.09116 7.5388C7.76999 7.33657 7.54676 7.02134 7.46264 6.65105C7.37842 6.28087 7.44353 5.90008 7.64582 5.57873Z" fill="#3D80FF"/>
</g>
<defs>
<clipPath id="clip0">
<rect width="24" height="24" fill="white"/>
</clipPath>
</defs>
</svg>
