<svg width="82" height="82" viewBox="0 0 82 82" fill="none" xmlns="http://www.w3.org/2000/svg">
<circle cx="41" cy="41" r="40.5" fill="white" stroke="#1969FF"/>
<path d="M41.3518 61C30.1457 61 21 52.005 21 41C21 29.9447 30.1457 21 41.3518 21C52.5578 21 61.7035 29.995 61.7035 41C61.7035 52.005 52.608 61 41.3518 61ZM41.3518 22.005C30.6985 22.005 22.0553 30.4975 22.0553 41C22.0553 51.5025 30.6985 59.9447 41.3518 59.9447C52.005 59.9447 60.6482 51.4523 60.6482 40.9497C60.6482 30.4472 52.005 22.005 41.3518 22.005Z" fill="#1969FF"/>
<path d="M36.1761 41.9551C35.8746 41.9551 35.6736 41.7541 35.6233 41.4526L35.3721 31.9048C35.3721 31.6033 35.5731 31.3521 35.8746 31.3521C36.1258 31.3521 36.4273 31.5531 36.4273 31.8546L36.6786 41.4023C36.7289 41.7038 36.4776 41.9551 36.1761 41.9551Z" fill="#1969FF"/>
<path d="M46.8294 41.9551C46.5279 41.9551 46.3269 41.7541 46.2766 41.4526L46.0254 31.9048C46.0254 31.6033 46.2264 31.3521 46.5279 31.3521C46.7792 31.3521 47.0807 31.5531 47.0807 31.8546L47.3319 41.4023C47.3822 41.7038 47.1309 41.9551 46.8294 41.9551Z" fill="#1969FF"/>
<path d="M41.4021 54.5174C37.0805 54.5174 33.1107 52.1054 31.2514 48.3868C31.1509 48.1858 31.2514 47.9847 31.4021 47.9345C31.6032 47.834 31.8042 47.9345 31.9047 48.0853C33.6635 51.5526 37.382 53.8139 41.4524 53.8139C45.4725 53.8139 49.2413 51.5526 51.0001 48.0853C51.1006 47.9345 51.3016 47.834 51.5027 47.9345C51.7037 48.035 51.7539 48.236 51.6534 48.3868C49.6936 52.1054 45.7238 54.5174 41.4021 54.5174Z" fill="#1969FF"/>
</svg>
