<svg width="82" height="82" viewBox="0 0 82 82" fill="none" xmlns="http://www.w3.org/2000/svg">
<circle cx="41" cy="41" r="40.5" fill="white" stroke="#1969FF"/>
<path d="M52.9588 25.625H29.0422C27.1552 25.625 25.6255 27.1547 25.6255 29.0417V52.9583C25.6255 54.8453 27.1552 56.375 29.0422 56.375H52.9588C54.8458 56.375 56.3755 54.8453 56.3755 52.9583V29.0417C56.3755 27.1547 54.8458 25.625 52.9588 25.625Z" stroke="#1969FF" stroke-linecap="round" stroke-linejoin="round"/>
<path d="M35.021 37.5835C36.4362 37.5835 37.5835 36.4362 37.5835 35.021C37.5835 33.6058 36.4362 32.4585 35.021 32.4585C33.6058 32.4585 32.4585 33.6058 32.4585 35.021C32.4585 36.4362 33.6058 37.5835 35.021 37.5835Z" stroke="#1969FF" stroke-linecap="round" stroke-linejoin="round"/>
<path d="M56.3753 46.1252L47.8337 37.5835L29.042 56.3752" stroke="#1969FF" stroke-linecap="round" stroke-linejoin="round"/>
</svg>
