<svg width="82" height="82" viewBox="0 0 82 82" fill="none" xmlns="http://www.w3.org/2000/svg">
<path d="M41 81.5C63.3675 81.5 81.5 63.3675 81.5 41C81.5 18.6325 63.3675 0.5 41 0.5C18.6325 0.5 0.5 18.6325 0.5 41C0.5 63.3675 18.6325 81.5 41 81.5Z" fill="white" stroke="#1969FF"/>
<g clip-path="url(#clip0)">
<path d="M46.3454 54.7812L62.6311 27.3526" stroke="#1969FF" stroke-width="0.857143"/>
<path d="M51.4283 29.2858C52.1384 29.2858 52.714 28.7101 52.714 28.0001C52.714 27.29 52.1384 26.7144 51.4283 26.7144C50.7182 26.7144 50.1426 27.29 50.1426 28.0001C50.1426 28.7101 50.7182 29.2858 51.4283 29.2858Z" fill="#1969FF"/>
<path d="M59.1422 55.0001C59.8523 55.0001 60.4279 54.4245 60.4279 53.7144C60.4279 53.0043 59.8523 52.4287 59.1422 52.4287C58.4321 52.4287 57.8565 53.0043 57.8565 53.7144C57.8565 54.4245 58.4321 55.0001 59.1422 55.0001Z" fill="#1969FF"/>
</g>
<path d="M29.5 57C34.7467 57 39 49.6127 39 40.5C39 31.3873 34.7467 24 29.5 24C24.2533 24 20 31.3873 20 40.5C20 49.6127 24.2533 57 29.5 57Z" stroke="#1969FF" stroke-width="0.857143"/>
<defs>
<clipPath id="clip0">
<rect width="18" height="29" fill="white" transform="translate(45 26)"/>
</clipPath>
</defs>
</svg>
