<svg width="16" height="16" viewBox="0 0 16 16" fill="none" xmlns="http://www.w3.org/2000/svg">
<g opacity="0.6">
<path fill-rule="evenodd" clip-rule="evenodd" d="M0.838209 0.143814L7.99946 7.30517L15.1618 0.143814C15.3535 -0.047938 15.6644 -0.047938 15.8562 0.143814C16.0479 0.335566 16.0479 0.646457 15.8562 0.838209L8.69375 7.99946L15.8562 15.1618C16.0479 15.3535 16.0479 15.6644 15.8562 15.8562C15.6644 16.0479 15.3535 16.0479 15.1618 15.8562L7.99946 8.69375L0.838209 15.8562C0.646457 16.0479 0.335566 16.0479 0.143814 15.8562C-0.047938 15.6644 -0.047938 15.3535 0.143814 15.1618L7.30517 7.99946L0.143814 0.838209C-0.047938 0.646457 -0.047938 0.335566 0.143814 0.143814C0.335566 -0.047938 0.646457 -0.047938 0.838209 0.143814Z" fill="black"/>
</g>
</svg>
