<svg width="24" height="24" viewBox="0 0 24 24" fill="none" xmlns="http://www.w3.org/2000/svg">
<g clip-path="url(#clip0)">
<path d="M6.24954 18.5311C4.64861 18.5311 3.22456 17.5061 2.70746 15.9801L2.67248 15.8651C2.55053 15.4609 2.49944 15.1211 2.49944 14.7811V7.96277L0.0734183 16.061C-0.238601 17.2521 0.472415 18.487 1.66538 18.8161L17.1288 22.9573C17.3218 23.0073 17.5148 23.0313 17.7049 23.0313C18.7008 23.0313 19.6109 22.3702 19.866 21.3961L20.7669 18.5311H6.24954Z" fill="#3D80FF"/>
<path d="M8.99962 8.03086C10.1027 8.03086 10.9995 7.13381 10.9995 6.03075C10.9995 4.9277 10.1027 4.03064 8.99962 4.03064C7.89657 4.03064 6.99951 4.9277 6.99951 6.03075C6.99951 7.13381 7.89657 8.03086 8.99962 8.03086Z" fill="#3D80FF"/>
<path d="M21.4999 1.03058H6.49951C5.12161 1.03058 3.99951 2.15268 3.99951 3.53076V14.5309C3.99951 15.909 5.12161 17.0311 6.49951 17.0311H21.4999C22.878 17.0311 24.0001 15.909 24.0001 14.5309V3.53076C24.0001 2.15268 22.878 1.03058 21.4999 1.03058ZM6.49951 3.03069H21.4999C21.776 3.03069 22 3.25463 22 3.53076V10.6299L18.8409 6.94375C18.5058 6.55079 18.0208 6.34077 17.4998 6.32887C16.9818 6.3318 16.4958 6.56178 16.1639 6.95986L12.4497 11.4179L11.2397 10.2108C10.5558 9.52688 9.44264 9.52688 8.75964 10.2108L5.99962 12.9699V3.53076C5.99962 3.25463 6.22356 3.03069 6.49951 3.03069Z" fill="#3D80FF"/>
</g>
<defs>
<clipPath id="clip0">
<rect width="24" height="24" fill="white"/>
</clipPath>
</defs>
</svg>
