<svg width="23" height="16" viewBox="0 0 23 16" fill="none" xmlns="http://www.w3.org/2000/svg">
<path d="M21.5519 0H5.37922C5.1143 0 4.89954 0.214764 4.89954 0.479688V0.889822C4.89954 1.15475 5.1143 1.36951 5.37922 1.36951H21.5519C21.8168 1.36951 22.0316 1.15475 22.0316 0.889822V0.479688C22.0316 0.214764 21.8168 0 21.5519 0Z" fill="#919191"/>
<path d="M21.5519 14.6305H5.37922C5.1143 14.6305 4.89954 14.8453 4.89954 15.1102V15.5203C4.89954 15.7852 5.1143 16 5.37922 16H21.5519C21.8168 16 22.0316 15.7852 22.0316 15.5203V15.1102C22.0316 14.8453 21.8168 14.6305 21.5519 14.6305Z" fill="#919191"/>
<path d="M21.552 7.30804H2.51795L3.82031 5.89775C3.91862 5.79658 3.97362 5.66107 3.97362 5.52C3.97362 5.37893 3.91862 5.24342 3.82031 5.14225L3.61884 4.94078C3.56861 4.88965 3.5087 4.84904 3.44261 4.82132C3.37651 4.7936 3.30556 4.77933 3.23389 4.77933C3.16222 4.77933 3.09126 4.7936 3.02517 4.82132C2.95908 4.84904 2.89917 4.88965 2.84894 4.94078L0.153091 7.60784C0.0549313 7.70861 0 7.84372 0 7.9844C0 8.12507 0.0549313 8.26019 0.153091 8.36095L2.82975 11.0208C2.87998 11.072 2.93989 11.1126 3.00598 11.1403C3.07208 11.168 3.14303 11.1823 3.2147 11.1823C3.28637 11.1823 3.35733 11.168 3.42342 11.1403C3.48951 11.1126 3.54942 11.072 3.59965 11.0208L3.80112 10.8194C3.89943 10.7182 3.95443 10.5827 3.95443 10.4416C3.95443 10.3005 3.89943 10.165 3.80112 10.0638L2.50596 8.65356H21.552C21.6792 8.65356 21.8012 8.60303 21.8912 8.51307C21.9811 8.42311 22.0317 8.3011 22.0317 8.17388V7.78773C22.0317 7.66051 21.9811 7.53849 21.8912 7.44854C21.8012 7.35858 21.6792 7.30804 21.552 7.30804Z" fill="#919191"/>
</svg>
