<svg width="14" height="16" viewBox="0 0 14 16" fill="none" xmlns="http://www.w3.org/2000/svg">
<g clip-path="url(#clip0)">
<path opacity="0.2" d="M2.94727 4.46518C2.94727 3.64317 3.60706 2.97681 4.42095 2.97681H12.5262C13.3401 2.97681 13.9999 3.64317 13.9999 4.46518V14.5117C13.9999 15.3337 13.3401 16.0001 12.5262 16.0001H4.42095C3.60706 16.0001 2.94727 15.3337 2.94727 14.5117V4.46518Z" fill="black"/>
<path opacity="0.2" d="M0 1.48837C0 0.666367 0.659791 0 1.47368 0H9.57893C10.3928 0 11.0526 0.666367 11.0526 1.48837V11.5349C11.0526 12.3569 10.3928 13.0233 9.57893 13.0233H1.47368C0.659791 13.0233 0 12.3569 0 11.5349V1.48837Z" fill="black"/>
</g>
<defs>
<clipPath id="clip0">
<rect width="14" height="16" fill="white"/>
</clipPath>
</defs>
</svg>
