<svg width="28" height="28" viewBox="0 0 28 28" fill="none" xmlns="http://www.w3.org/2000/svg">
<g clip-path="url(#clip0)">
<path d="M26.5031 12.3081C25.3887 8.47902 24.1318 6.50054 24.1116 6.46504C24.0399 6.3776 22.2639 4.25222 17.9833 2.68018L17.4177 4.22018C19.4541 4.96808 20.8988 5.88049 21.6934 6.47002C19.3213 5.76165 16.4993 5.32782 14 5.32782C11.5007 5.32782 8.67874 5.76165 6.30662 6.47002C7.10112 5.88054 8.54585 4.96808 10.5822 4.22018L10.0166 2.68018C5.73617 4.25222 3.96014 6.3776 3.8885 6.46504C3.86821 6.50054 2.61133 8.47902 1.49691 12.3081C0.422844 15.9982 0.0148203 21.2039 0 21.4126C0.0957031 21.5622 2.29687 25.3204 8.29571 25.3204L9.81624 23.1185C8.11273 22.6662 6.48834 21.9368 5.00139 20.947L5.91046 19.5813C8.30933 21.178 11.1066 22.0221 14 22.0221C16.8934 22.0221 19.6907 21.178 22.0895 19.5813L22.9986 20.947C21.5117 21.9368 19.8873 22.6662 18.1838 23.1185L19.7043 25.3204C25.7031 25.3204 27.9043 21.5622 28 21.4126C27.9852 21.2039 27.5772 15.9982 26.5031 12.3081ZM10.207 16.6001H8.56636V13.8657H10.207V16.6001ZM19.4336 16.6001H17.793V13.8657H19.4336V16.6001Z" fill="#121223"/>
</g>
<defs>
<clipPath id="clip0">
<rect width="28" height="28" fill="white"/>
</clipPath>
</defs>
</svg>
