<svg width="24" height="24" viewBox="0 0 24 24" fill="none" xmlns="http://www.w3.org/2000/svg">
<path d="M22.1333 1.6228H1.86666C0.835734 1.6228 0 2.45854 0 3.48946V5.61116C0 5.7584 0.119391 5.87783 0.266672 5.87783H23.7333C23.8807 5.87783 24 5.75844 24 5.61116V3.48946C24 2.45854 23.1643 1.6228 22.1333 1.6228ZM3.36586 4.35205C3.03352 4.35205 2.76417 4.08266 2.76417 3.75037C2.76417 3.41807 3.03356 3.14868 3.36586 3.14868C3.69816 3.14868 3.96755 3.41807 3.96755 3.75037C3.96759 4.08266 3.6982 4.35205 3.36586 4.35205ZM5.29486 4.35205C4.96252 4.35205 4.69317 4.08266 4.69317 3.75037C4.69317 3.41807 4.96256 3.14868 5.29486 3.14868C5.62716 3.14868 5.89655 3.41807 5.89655 3.75037C5.89659 4.08266 5.62716 4.35205 5.29486 4.35205ZM7.22386 4.35205C6.89156 4.35205 6.62217 4.08266 6.62217 3.75037C6.62217 3.41807 6.89156 3.14868 7.22386 3.14868C7.5562 3.14868 7.82555 3.41807 7.82555 3.75037C7.82555 4.08266 7.55616 4.35205 7.22386 4.35205Z" fill="#3D80FF"/>
<path d="M23.7333 6.94458H0.266672C0.119438 6.94458 0 7.06397 0 7.21125V20.5106C0 21.5415 0.835734 22.3772 1.86666 22.3772H22.1333C23.1643 22.3772 24 21.5415 24 20.5106V7.21125C24 7.06397 23.8807 6.94458 23.7333 6.94458ZM8.35327 13.3891L7.42247 16.2615C7.28414 16.6887 6.70823 16.7654 6.46514 16.3834L5.75016 15.2595L5.03512 16.3835C4.79311 16.7637 4.21645 16.6897 4.0778 16.2616L3.14709 13.3892C2.92983 12.719 3.94425 12.3891 4.16175 13.0604L4.74323 14.8551L5.30011 13.9798C5.50927 13.651 5.99058 13.6504 6.20011 13.9798L6.75698 14.8551L7.33852 13.0604C7.5562 12.3887 8.57048 12.719 8.35327 13.3891ZM14.6031 13.3891L13.6724 16.2615C13.5341 16.6886 12.9582 16.7655 12.7151 16.3834L12 15.2596L11.285 16.3835C11.043 16.7637 10.4663 16.6897 10.3277 16.2616L9.39698 13.3892C9.17972 12.719 10.1941 12.3891 10.4116 13.0604L10.9931 14.8551L11.55 13.9798C11.7592 13.651 12.2405 13.6504 12.45 13.9798L13.0069 14.8551L13.5884 13.0604C13.8056 12.39 14.8207 12.7178 14.6031 13.3891ZM20.8529 13.3891L19.9222 16.2615C19.7836 16.6894 19.207 16.7639 18.9649 16.3834L18.2499 15.2595L17.5349 16.3834C17.2918 16.7654 16.716 16.6888 16.5776 16.2615L15.6468 13.3891C15.4295 12.7188 16.4439 12.389 16.6614 13.0603L17.243 14.855L17.7998 13.9797C18.009 13.651 18.4903 13.6504 18.6998 13.9797L19.2567 14.855L19.8382 13.0604C20.0554 12.39 21.0705 12.7178 20.8529 13.3891Z" fill="#3D80FF"/>
</svg>
