<svg width="16" height="14" viewBox="0 0 16 14" fill="none" xmlns="http://www.w3.org/2000/svg">
<g clip-path="url(#clip0)">
<path opacity="0.7" d="M12.1421 5.59825H3.90032C3.78973 5.59825 3.70007 5.6879 3.70007 5.7985V8.2015C3.70007 8.3121 3.78973 8.40175 3.90032 8.40175H12.1421V9.61645C12.1421 9.7819 12.3313 9.87595 12.4632 9.77615L15.9207 7.1597C16.0265 7.07955 16.0265 6.92045 15.9207 6.8403L12.4632 4.22386C12.3313 4.12404 12.1421 4.21813 12.1421 4.38354V5.59825Z" fill="#2479FA"/>
<path opacity="0.7" d="M0 1.6C0 0.716345 0.665175 0 1.48572 0H8.5143C9.3348 0 10 0.716345 10 1.6V12.4C10 13.2837 9.3348 14 8.5143 14H1.48572C0.665175 14 0 13.2837 0 12.4V1.6Z" fill="#2479FA"/>
</g>
<defs>
<clipPath id="clip0">
<rect width="16" height="14" fill="white"/>
</clipPath>
</defs>
</svg>
