<svg width="93" height="24" viewBox="0 0 93 24" fill="none" xmlns="http://www.w3.org/2000/svg">
<g clip-path="url(#clip0)">
<path d="M8.42916 0.229901C9.01247 -0.0766337 9.90004 -0.0766337 10.4834 0.229901L16.4355 3.35781C16.7868 3.54242 16.9798 3.81752 17.0144 4.10151H17.02V19.824C17.0123 20.1337 16.8175 20.4414 16.4355 20.6423L10.4834 23.7701C9.90004 24.0767 9.01247 24.0767 8.42916 23.7701L2.47699 20.6423C2.09659 20.4424 1.91404 20.1324 1.905 19.824C1.9041 19.7936 1.90399 19.7683 1.90485 19.7473L1.90481 4.20249C1.90421 4.18547 1.90416 4.16846 1.90464 4.15153L1.905 4.10151L1.90766 4.10149C1.9341 3.81439 2.11828 3.54632 2.47699 3.35781L8.42916 0.229901ZM16.083 12.873L10.4834 15.8157C9.90004 16.1222 9.01247 16.1222 8.42916 15.8157L2.84175 12.8796V19.7929L8.42916 22.7136C8.74466 22.8814 9.07213 23.0449 9.39232 23.0657L9.45626 23.0677C9.78992 23.0689 10.1138 22.9003 10.4423 22.7407L16.083 19.7677V12.873ZM0.936881 19.4822C0.936881 20.0844 1.00725 20.4804 1.14696 20.7594C1.26276 20.9906 1.43651 21.1672 1.75376 21.3823L1.77187 21.3945C1.8415 21.4412 1.9182 21.4901 2.01156 21.5475L2.12166 21.6146L2.45974 21.8177L1.97484 22.6153L1.59644 22.3879L1.53284 22.3491C1.42342 22.2817 1.33274 22.2242 1.24816 22.1674C0.343969 21.5608 0.00675456 20.8997 0.000100694 19.524L0 19.4822H0.936881ZM8.98768 8.6589C8.94435 8.67371 8.90374 8.69083 8.86671 8.71029L2.91454 11.8382C2.90829 11.8415 2.90233 11.8447 2.89667 11.8479L2.89162 11.8509L2.90096 11.8562L2.91454 11.8635L8.86671 14.9914C8.90374 15.0109 8.94435 15.028 8.98768 15.0428V8.6589ZM9.92484 8.6589V15.0428C9.96817 15.028 10.0088 15.0109 10.0458 14.9914L15.998 11.8635C16.0042 11.8602 16.0102 11.857 16.0159 11.8538L16.0209 11.8509L16.0115 11.8455L15.998 11.8382L10.0458 8.71029C10.0088 8.69083 9.96817 8.67371 9.92484 8.6589ZM16.083 5.21681L10.7436 8.02275L16.083 10.8287V5.21681ZM2.84175 5.22337V10.8221L8.16881 8.02275L2.84175 5.22337ZM10.0458 1.05415C9.73627 0.891493 9.17625 0.891493 8.86671 1.05415L2.91454 4.18208C2.90829 4.18536 2.90233 4.1886 2.89667 4.19181L2.89162 4.19471L2.90096 4.20004L2.91454 4.20737L8.86671 7.33528C9.17625 7.49794 9.73627 7.49794 10.0458 7.33528L15.998 4.20737C16.0042 4.20409 16.0102 4.20084 16.0159 4.19762L16.0209 4.19471L16.0115 4.18939L15.998 4.18208L10.0458 1.05415ZM16.9627 1.39716L17.3411 1.62454L17.4047 1.6634C17.5141 1.73059 17.6047 1.78832 17.6894 1.84506C18.5935 2.45156 18.9307 3.11282 18.9373 4.48839L18.9375 4.5303H18.0006C18.0006 3.9279 17.9303 3.53198 17.7905 3.25303C17.6747 3.02184 17.501 2.84516 17.1837 2.63018L17.1656 2.61797C17.096 2.57126 17.0193 2.52234 16.9259 2.46484L16.8158 2.39775L16.4778 2.19476L16.9627 1.39716Z" fill="#FFF"/>
<path d="M28.455 19.1685V10.4003H30.8865V8.79493H28.455V7.64231C28.455 6.33877 29.0252 5.68701 30.1654 5.68701C30.495 5.68701 30.8454 5.74189 31.2163 5.85165V4.14332C30.7629 4.00611 30.2616 3.9375 29.712 3.9375C28.6543 3.9375 27.8334 4.23937 27.2496 4.84312C26.6657 5.44687 26.3738 6.32505 26.3738 7.47767V8.79493H24.375V10.4003H26.3738V19.1685H28.455ZM36.9036 19.3125C37.7004 19.3125 38.3976 19.1479 38.9951 18.8184C39.5927 18.4892 40.0427 18.0158 40.3449 17.3983V19.1685H42.4056V8.79493H40.3449V10.4827C40.0288 9.86522 39.5756 9.38839 38.9848 9.0522C38.3942 8.71603 37.7004 8.54794 36.9036 8.54794C36.0107 8.54794 35.2138 8.77434 34.5133 9.22716C33.8126 9.67997 33.2666 10.318 32.8751 11.1413C32.4836 11.9646 32.2879 12.9114 32.2879 13.9817C32.2879 15.052 32.4801 15.9885 32.8648 16.7912C33.2494 17.5939 33.7886 18.2148 34.4824 18.6539C35.1761 19.0929 35.9831 19.3125 36.9036 19.3125ZM37.3982 17.6659C36.4502 17.6659 35.7118 17.3434 35.1831 16.6985C34.6541 16.0536 34.3896 15.148 34.3896 13.9817C34.3896 12.8016 34.6541 11.8789 35.1831 11.2134C35.7118 10.5479 36.4434 10.2151 37.3776 10.2151C38.3254 10.2151 39.057 10.5376 39.5721 11.1825C40.0873 11.8274 40.3449 12.7467 40.3449 13.9405C40.3449 15.1206 40.0873 16.0365 39.5721 16.6882C39.057 17.34 38.3323 17.6659 37.3982 17.6659ZM47.5159 19.1685V13.2613C47.5159 12.3419 47.7802 11.6078 48.3092 11.059C48.8381 10.5101 49.5422 10.2357 50.4214 10.2357C51.1907 10.2357 51.7504 10.4415 52.1008 10.8532C52.4511 11.2648 52.6262 11.9234 52.6262 12.8291V19.1685H54.7074V12.7056C54.7074 9.93383 53.4641 8.54794 50.9777 8.54794C50.181 8.54794 49.47 8.72289 48.8449 9.07279C48.2199 9.42268 47.7426 9.92696 47.4128 10.5856L47.2273 8.79493H45.2904C45.4003 9.65938 45.4552 10.6336 45.4552 11.7176V19.1685H47.5159ZM61.6723 19.3125C62.2493 19.3125 62.7645 19.2371 63.2179 19.0862V17.3983C62.8468 17.5081 62.4829 17.563 62.1257 17.563C61.5761 17.563 61.1469 17.4155 60.8377 17.1205C60.5287 16.8255 60.3741 16.3212 60.3741 15.6077V10.4003H63.2385V8.79493H60.3741V5.48117L58.293 6.20156V8.79493H56.2734V10.4003H58.293V15.7723C58.293 16.925 58.5883 17.8031 59.1789 18.4069C59.7697 19.0106 60.6007 19.3125 61.6723 19.3125ZM69.6264 19.3125C70.6292 19.3125 71.5153 19.0929 72.2846 18.6539C73.0539 18.2148 73.6479 17.5904 74.067 16.7809C74.4861 15.9713 74.6955 15.0245 74.6955 13.9405C74.6955 12.8565 74.4861 11.9063 74.067 11.0899C73.6479 10.2734 73.0539 9.64568 72.2846 9.20657C71.5153 8.76748 70.6292 8.54794 69.6264 8.54794C68.6098 8.54794 67.7169 8.76748 66.9476 9.20657C66.1783 9.64568 65.5841 10.2734 65.1651 11.0899C64.7462 11.9063 64.5366 12.8565 64.5366 13.9405C64.5366 15.0245 64.7462 15.9713 65.1651 16.7809C65.5841 17.5904 66.1783 18.2148 66.9476 18.6539C67.7169 19.0929 68.6098 19.3125 69.6264 19.3125ZM69.6058 17.6659C68.6578 17.6659 67.9264 17.3503 67.4111 16.7191C66.8961 16.0879 66.6384 15.1617 66.6384 13.9405C66.6384 12.7467 66.8994 11.8274 67.4214 11.1825C67.9434 10.5376 68.6784 10.2151 69.6264 10.2151C70.5606 10.2151 71.2852 10.5376 71.8003 11.1825C72.3156 11.8274 72.573 12.7467 72.573 13.9405C72.573 15.1617 72.3189 16.0879 71.8106 16.7191C71.3023 17.3503 70.5673 17.6659 69.6058 17.6659ZM79.1876 19.1685V13.3025C79.1876 12.3557 79.4213 11.6078 79.8883 11.059C80.3554 10.5101 80.9873 10.2357 81.7841 10.2357C82.4709 10.2357 82.9689 10.4415 83.2779 10.8532C83.5871 11.2648 83.7416 11.9166 83.7416 12.8085V19.1685H85.8229V13.3025C85.8229 12.3557 86.0529 11.6078 86.5132 11.059C86.9734 10.5101 87.6019 10.2357 88.3988 10.2357C89.0856 10.2357 89.5836 10.4415 89.8926 10.8532C90.2018 11.2648 90.3562 11.9166 90.3562 12.8085V19.1685H92.4375V12.7056C92.4375 9.93383 91.2836 8.54794 88.9757 8.54794C88.2064 8.54794 87.516 8.72633 86.9048 9.08308C86.2933 9.43984 85.8298 9.92696 85.5139 10.5444C85.0193 9.21343 83.9683 8.54794 82.3611 8.54794C81.6054 8.54794 80.946 8.71946 80.3828 9.06249C79.8195 9.40554 79.3869 9.89265 79.0847 10.5239L78.8992 8.79493H76.9622C77.0721 9.65938 77.127 10.6336 77.127 11.7176V19.1685H79.1876Z" fill="#FFF"/>
</g>
<defs>
<clipPath id="clip0">
<rect width="92.4375" height="24" fill="white"/>
</clipPath>
</defs>
</svg>
