<?xml version="1.0" encoding="UTF-8"?>
<svg width="399px" height="96px" viewBox="0 0 399 96" version="1.1" xmlns="http://www.w3.org/2000/svg" xmlns:xlink="http://www.w3.org/1999/xlink">
    <!-- Generator: Sketch 60.1 (88133) - https://sketch.com -->
    <title>fantom logo white v3 copy 2</title>
    <desc>Created with Sketch.</desc>
    <defs>
        <rect id="path-1" x="6.13333333" y="68.25" width="57" height="15.75"></rect>
    </defs>
    <g id="fantom-logo-white-v3-copy-2" stroke="none" stroke-width="1" fill="none" fill-rule="evenodd">
        <g id="fantom-new-logo" transform="translate(6.000000, 8.000000)">
            <g id="rounded-copy">
                <path d="M37.0376899,0.619349049 L57.878093,11.6297591 C59.4411573,12.4555579 59.4411573,13.7944421 57.878093,14.6202409 L37.0376899,25.630651 C35.4746257,26.4564497 32.9403978,26.4564497 31.3773335,25.630651 L10.5369304,14.6202409 C8.97386617,13.7944421 8.97386617,12.4555579 10.5369304,11.6297591 L31.3773335,0.619349049 C32.9403978,-0.206449683 35.4746257,-0.206449683 37.0376899,0.619349049 Z" id="Rectangle" stroke="#FFFFFF" stroke-width="5"></path>
                <path d="M37.0376899,27.4869961 L57.878093,38.4974062 C59.4411573,39.3232049 59.4411573,40.6620892 57.878093,41.4878879 L37.0376899,52.498298 C35.4746257,53.3240967 32.9403978,53.3240967 31.3773335,52.498298 L10.5369304,41.4878879 C8.97386617,40.6620892 8.97386617,39.3232049 10.5369304,38.4974062 L31.3773335,27.4869961 C32.9403978,26.6611974 35.4746257,26.6611974 37.0376899,27.4869961 Z" id="Rectangle-Copy" stroke="#FFFFFF" stroke-width="5"></path>
                <mask id="mask-2" fill="white">
                    <use xlink:href="#path-1"></use>
                </mask>
                <g id="Rectangle"></g>
                <path d="M37.0376899,55.5899373 L57.878093,66.6003474 C59.4411573,67.4261461 59.4411573,68.7650304 57.878093,69.5908291 L37.0376899,80.6012392 C35.4746257,81.4270379 32.9403978,81.4270379 31.3773335,80.6012392 L10.5369304,69.5908291 C8.97386617,68.7650304 8.97386617,67.4261461 10.5369304,66.6003474 L31.3773335,55.5899373 C32.9403978,54.7641386 35.4746257,54.7641386 37.0376899,55.5899373 Z" id="Rectangle-Copy-2" stroke="#FFFFFF" stroke-width="5" mask="url(#mask-2)"></path>
                <path d="M61.5245696,3.59737679 C65.6050426,6.06796502 67.6109894,6.99443561 67.6109894,13.1709062" id="Path-11" stroke="#FFFFFF" stroke-width="5"></path>
                <path d="M0.40970266,67.1232114 C4.49017562,69.5937997 6.49612241,70.5202703 6.49612241,76.6967409" id="Path-11-Copy" stroke="#FFFFFF" stroke-width="5" transform="translate(3.452913, 71.909976) scale(-1, -1) translate(-3.452913, -71.909976) "></path>
                <line x1="9.21032864" y1="67.7867647" x2="9.21032864" y2="13.4133329" id="Line-2" stroke="#FFFFFF" stroke-width="5" stroke-linecap="square"></line>
                <line x1="59.2046948" y1="67.7867647" x2="59.2046948" y2="13.4133329" id="Line-2-Copy" stroke="#FFFFFF" stroke-width="5" stroke-linecap="square"></line>
                <line x1="34.2075117" y1="52.3455882" x2="34.2075117" y2="27.0220588" id="Line-2-Copy-2" stroke="#FFFFFF" stroke-width="5" stroke-linecap="square"></line>
            </g>
        </g>
        <path d="M112.535,78 L112.535,39.66 L123.155,39.66 L123.155,32.64 L112.535,32.64 L112.535,27.6 C112.535,21.9 115.025,19.05 120.005,19.05 C121.445,19.05 122.975,19.29 124.595,19.77 L124.595,19.77 L124.595,12.3 C122.615,11.7 120.425,11.4 118.025,11.4 C113.405,11.4 109.82,12.72 107.27,15.36 C104.72,18 103.445,21.84 103.445,26.88 L103.445,26.88 L103.445,32.64 L94.715,32.64 L94.715,39.66 L103.445,39.66 L103.445,78 L112.535,78 Z M149.885,78.63 C153.365,78.63 156.41,77.91 159.02,76.47 C161.63,75.03 163.595,72.96 164.915,70.26 L164.915,70.26 L164.915,78 L173.915,78 L173.915,32.64 L164.915,32.64 L164.915,40.02 C163.535,37.32 161.555,35.235 158.975,33.765 C156.395,32.295 153.365,31.56 149.885,31.56 C145.985,31.56 142.505,32.55 139.445,34.53 C136.385,36.51 134,39.3 132.29,42.9 C130.58,46.5 129.725,50.64 129.725,55.32 C129.725,60 130.565,64.095 132.245,67.605 C133.925,71.115 136.28,73.83 139.31,75.75 C142.34,77.67 145.865,78.63 149.885,78.63 Z M152.045,71.43 C147.905,71.43 144.68,70.02 142.37,67.2 C140.06,64.38 138.905,60.42 138.905,55.32 C138.905,50.16 140.06,46.125 142.37,43.215 C144.68,40.305 147.875,38.85 151.955,38.85 C156.095,38.85 159.29,40.26 161.54,43.08 C163.79,45.9 164.915,49.92 164.915,55.14 C164.915,60.3 163.79,64.305 161.54,67.155 C159.29,70.005 156.125,71.43 152.045,71.43 Z M196.235,78 L196.235,52.17 C196.235,48.15 197.39,44.94 199.7,42.54 C202.01,40.14 205.085,38.94 208.925,38.94 C212.285,38.94 214.73,39.84 216.26,41.64 C217.79,43.44 218.555,46.32 218.555,50.28 L218.555,50.28 L218.555,78 L227.645,78 L227.645,49.74 C227.645,37.62 222.215,31.56 211.355,31.56 C207.875,31.56 204.77,32.325 202.04,33.855 C199.31,35.385 197.225,37.59 195.785,40.47 L195.785,40.47 L194.975,32.64 L186.515,32.64 C186.995,36.42 187.235,40.68 187.235,45.42 L187.235,45.42 L187.235,78 L196.235,78 Z M258.065,78.63 C260.585,78.63 262.835,78.3 264.815,77.64 L264.815,77.64 L264.815,70.26 C263.195,70.74 261.605,70.98 260.045,70.98 C257.645,70.98 255.77,70.335 254.42,69.045 C253.07,67.755 252.395,65.55 252.395,62.43 L252.395,62.43 L252.395,39.66 L264.905,39.66 L264.905,32.64 L252.395,32.64 L252.395,18.15 L243.305,21.3 L243.305,32.64 L234.485,32.64 L234.485,39.66 L243.305,39.66 L243.305,63.15 C243.305,68.19 244.595,72.03 247.175,74.67 C249.755,77.31 253.385,78.63 258.065,78.63 Z M292.805,78.63 C297.185,78.63 301.055,77.67 304.415,75.75 C307.775,73.83 310.37,71.1 312.2,67.56 C314.03,64.02 314.945,59.88 314.945,55.14 C314.945,50.4 314.03,46.245 312.2,42.675 C310.37,39.105 307.775,36.36 304.415,34.44 C301.055,32.52 297.185,31.56 292.805,31.56 C288.365,31.56 284.465,32.52 281.105,34.44 C277.745,36.36 275.15,39.105 273.32,42.675 C271.49,46.245 270.575,50.4 270.575,55.14 C270.575,59.88 271.49,64.02 273.32,67.56 C275.15,71.1 277.745,73.83 281.105,75.75 C284.465,77.67 288.365,78.63 292.805,78.63 Z M292.715,71.43 C288.575,71.43 285.38,70.05 283.13,67.29 C280.88,64.53 279.755,60.48 279.755,55.14 C279.755,49.92 280.895,45.9 283.175,43.08 C285.455,40.26 288.665,38.85 292.805,38.85 C296.885,38.85 300.05,40.26 302.3,43.08 C304.55,45.9 305.675,49.92 305.675,55.14 C305.675,60.48 304.565,64.53 302.345,67.29 C300.125,70.05 296.915,71.43 292.715,71.43 Z M334.565,78 L334.565,52.35 C334.565,48.21 335.585,44.94 337.625,42.54 C339.665,40.14 342.425,38.94 345.905,38.94 C348.905,38.94 351.08,39.84 352.43,41.64 C353.78,43.44 354.455,46.29 354.455,50.19 L354.455,50.19 L354.455,78 L363.545,78 L363.545,52.35 C363.545,48.21 364.55,44.94 366.56,42.54 C368.57,40.14 371.315,38.94 374.795,38.94 C377.795,38.94 379.97,39.84 381.32,41.64 C382.67,43.44 383.345,46.29 383.345,50.19 L383.345,50.19 L383.345,78 L392.435,78 L392.435,49.74 C392.435,37.62 387.395,31.56 377.315,31.56 C373.955,31.56 370.94,32.34 368.27,33.9 C365.6,35.46 363.575,37.59 362.195,40.29 C360.035,34.47 355.445,31.56 348.425,31.56 C345.125,31.56 342.245,32.31 339.785,33.81 C337.325,35.31 335.435,37.44 334.115,40.2 L334.115,40.2 L333.305,32.64 L324.845,32.64 C325.325,36.42 325.565,40.68 325.565,45.42 L325.565,45.42 L325.565,78 L334.565,78 Z" id="fantom" fill="#FFFFFF" fill-rule="nonzero"></path>
    </g>
</svg>