<svg width="24" height="24" viewBox="0 0 24 24" fill="none" xmlns="http://www.w3.org/2000/svg">
<path d="M11.4291 0.229901C12.0125 -0.0766336 12.9 -0.0766336 13.4833 0.229901L19.4355 3.3578C19.7868 3.54241 19.9797 3.81751 20.0143 4.1015H20.02V19.824C20.0123 20.1337 19.8175 20.4414 19.4355 20.6422L13.4833 23.7701C12.9 24.0766 12.0125 24.0766 11.4291 23.7701L5.47698 20.6422C5.09658 20.4423 4.91403 20.1324 4.905 19.824C4.9041 19.7936 4.90398 19.7683 4.90485 19.7473L4.90481 4.20249C4.90421 4.18546 4.90415 4.16845 4.90464 4.15152L4.905 4.1015L4.90766 4.10148C4.9341 3.81438 5.11828 3.54631 5.47698 3.3578L11.4291 0.229901ZM19.083 12.873L13.4833 15.8156C12.9 16.1222 12.0125 16.1222 11.4291 15.8156L5.84174 12.8795V19.7928L11.4291 22.7135C11.7446 22.8813 12.0721 23.0448 12.3923 23.0656L12.4562 23.0677C12.7899 23.0688 13.1138 22.9003 13.4423 22.7407L19.083 19.7677V12.873ZM3.93688 19.4821C3.93688 20.0844 4.00725 20.4804 4.14696 20.7594C4.26276 20.9906 4.43651 21.1672 4.75376 21.3823L4.77187 21.3945C4.8415 21.4411 4.9182 21.4901 5.01155 21.5475L5.12165 21.6146L5.45973 21.8176L4.97484 22.6153L4.59644 22.3878L4.53283 22.349C4.42342 22.2817 4.33274 22.2241 4.24815 22.1673C3.34397 21.5608 3.00675 20.8996 3.0001 19.524L3 19.4821H3.93688ZM11.9877 8.65888C11.9443 8.6737 11.9037 8.69081 11.8667 8.71028L5.91453 11.8382C5.90829 11.8415 5.90233 11.8447 5.89666 11.8479L5.89162 11.8508L5.90096 11.8561L5.91453 11.8635L11.8667 14.9914C11.9037 15.0108 11.9443 15.028 11.9877 15.0428V8.65888ZM12.9248 8.65888V15.0428C12.9682 15.028 13.0088 15.0108 13.0458 14.9914L18.998 11.8635C19.0042 11.8602 19.0102 11.857 19.0158 11.8537L19.0209 11.8508L19.0115 11.8455L18.998 11.8382L13.0458 8.71028C13.0088 8.69081 12.9682 8.6737 12.9248 8.65888ZM19.083 5.2168L13.7435 8.02273L19.083 10.8287V5.2168ZM5.84174 5.22336V10.8221L11.1688 8.02273L5.84174 5.22336ZM13.0458 1.05415C12.7363 0.891491 12.1762 0.891491 11.8667 1.05415L5.91453 4.18207C5.90829 4.18535 5.90233 4.18859 5.89666 4.1918L5.89162 4.1947L5.90096 4.20003L5.91453 4.20736L11.8667 7.33527C12.1762 7.49792 12.7363 7.49792 13.0458 7.33527L18.998 4.20736C19.0042 4.20408 19.0102 4.20084 19.0158 4.19761L19.0209 4.1947L19.0115 4.18938L18.998 4.18207L13.0458 1.05415ZM19.9626 1.39716L20.341 1.62454L20.4046 1.66339C20.514 1.73059 20.6047 1.78832 20.6893 1.84505C21.5935 2.45156 21.9307 3.11281 21.9373 4.48839L21.9375 4.53029H21.0006C21.0006 3.92789 20.9302 3.53197 20.7905 3.25302C20.6747 3.02184 20.501 2.84516 20.1837 2.63017L20.1656 2.61796C20.096 2.57126 20.0193 2.52234 19.9259 2.46483L19.8158 2.39775L19.4777 2.19476L19.9626 1.39716Z" fill="#1969FF"/>
</svg>
