<svg width="24" height="24" viewBox="0 0 24 24" fill="none" xmlns="http://www.w3.org/2000/svg">
<path d="M24 12C24 18.6274 18.6274 24 12 24C5.37258 24 0 18.6274 0 12C0 5.37258 5.37258 0 12 0C18.6274 0 24 5.37258 24 12Z" fill="#3D80FF"/>
<path d="M15.2558 18.2733L15.0344 19.1872C14.3703 19.4519 13.8398 19.6534 13.4448 19.7919C13.0494 19.9309 12.5899 20 12.0664 20C11.2624 20 10.6371 19.8011 10.1911 19.406C9.74509 19.0094 9.52203 18.5068 9.52203 17.8971C9.52203 17.661 9.53821 17.4182 9.57187 17.1709C9.6058 16.9232 9.65976 16.6443 9.73359 16.3326L10.5635 13.3659C10.6374 13.0819 10.7001 12.8127 10.7504 12.5582C10.8014 12.3052 10.8259 12.0725 10.8259 11.863C10.8259 11.4841 10.7483 11.2191 10.5936 11.0701C10.439 10.9216 10.1439 10.8461 9.7059 10.8461C9.49136 10.8461 9.27085 10.8808 9.04607 10.948C8.82031 11.0154 8.62734 11.0805 8.46533 11.141L8.68726 10.2264C9.23095 10.0028 9.75063 9.81138 10.2477 9.65249C10.7449 9.49318 11.2146 9.41345 11.6588 9.41345C12.4573 9.41345 13.0734 9.60832 13.506 9.99808C13.9386 10.3881 14.1549 10.8938 14.1549 11.5168C14.1549 11.6457 14.1407 11.8729 14.1102 12.1975C14.0804 12.5229 14.0248 12.821 13.9439 13.0922L13.1175 16.0469C13.0498 16.2843 12.9889 16.5556 12.9359 16.8609C12.8812 17.1641 12.8551 17.3959 12.8551 17.5513C12.8551 17.9437 12.9417 18.2115 13.1154 18.3539C13.2903 18.4963 13.5916 18.5672 14.0196 18.5672C14.2205 18.5672 14.4491 18.5312 14.7031 18.4605C14.9564 18.3898 15.1412 18.3277 15.2558 18.2733ZM15.4653 5.86849C15.4653 6.38329 15.2732 6.82295 14.8871 7.18446C14.5021 7.54725 14.038 7.7288 13.4952 7.7288C12.9507 7.7288 12.4855 7.54725 12.096 7.18446C11.7073 6.8228 11.5125 6.38329 11.5125 5.86849C11.5125 5.35469 11.7073 4.91431 12.096 4.54821C12.4848 4.18269 12.9508 4 13.4952 4C14.0379 4 14.5021 4.18312 14.8871 4.54821C15.2735 4.91431 15.4653 5.35483 15.4653 5.86849Z" fill="white"/>
</svg>
