<?xml version="1.0" encoding="UTF-8" standalone="no"?>
<svg width="100%" height="100%" viewBox="0 0 400 100" version="1.1" xmlns="http://www.w3.org/2000/svg" xmlns:xlink="http://www.w3.org/1999/xlink" xml:space="preserve" xmlns:serif="http://www.serif.com/" style="fill-rule:evenodd;clip-rule:evenodd;stroke-linejoin:round;stroke-miterlimit:2;">
    <g transform="matrix(1,0,0,1,-1400.02,-5070)">
        <g transform="matrix(1,0,0,1,1100,4620)">
            <g id="Logo-color" serif:id="Logo color">
                <g transform="matrix(1,0,0,1,-1100,-4620.25)">
                    <path d="M1682.3,5147.46C1686.38,5147.46 1688.96,5146.38 1690.54,5144.88L1688.46,5138.29C1687.79,5139.04 1686.21,5139.71 1684.55,5139.71C1682.05,5139.71 1680.71,5137.71 1680.71,5134.96L1680.71,5113.88L1688.88,5113.88L1688.88,5106.21L1680.71,5106.21L1680.71,5095.21L1671.97,5095.21L1671.97,5106.21L1665.31,5106.21L1665.31,5113.88L1671.97,5113.88L1671.97,5137.13C1671.97,5143.79 1675.55,5147.46 1682.3,5147.46ZM1734.68,5147.46C1747.6,5147.46 1755.42,5137.88 1755.42,5126.29C1755.42,5114.79 1747.6,5105.21 1734.68,5105.21C1721.94,5105.21 1714.03,5114.79 1714.03,5126.29C1714.03,5137.88 1721.94,5147.46 1734.68,5147.46ZM1625.16,5146.46L1635.82,5146.46L1614,5090.88L1601.84,5090.88L1580.02,5146.46L1590.68,5146.46L1594.76,5135.79L1621.08,5135.79L1625.16,5146.46ZM1696.62,5146.46L1705.37,5146.46L1705.37,5106.21L1696.62,5106.21L1696.62,5146.46ZM1641.48,5146.46L1650.23,5146.46L1650.23,5119.04C1651.98,5116.21 1656.89,5113.71 1660.56,5113.71C1661.64,5113.71 1662.56,5113.79 1663.31,5113.96L1663.31,5105.29C1658.06,5105.29 1653.23,5108.29 1650.23,5112.13L1650.23,5106.21L1641.48,5106.21L1641.48,5146.46ZM1791.24,5146.46L1799.98,5146.46L1799.98,5118.13C1799.98,5109.88 1795.65,5105.21 1786.99,5105.21C1780.66,5105.21 1775.5,5108.54 1772.83,5111.71L1772.83,5106.21L1764.09,5106.21L1764.09,5146.46L1772.83,5146.46L1772.83,5118.38C1774.83,5115.63 1778.66,5112.96 1783.16,5112.96C1788.07,5112.96 1791.24,5115.04 1791.24,5121.29L1791.24,5146.46ZM1734.68,5139.71C1727.27,5139.71 1723.11,5133.46 1723.11,5126.29C1723.11,5119.21 1727.27,5112.96 1734.68,5112.96C1742.18,5112.96 1746.35,5119.21 1746.35,5126.29C1746.35,5133.46 1742.18,5139.71 1734.68,5139.71ZM1607.92,5099.13L1618.33,5127.21L1597.51,5127.21L1607.92,5099.13ZM1700.95,5099.54C1703.95,5099.54 1706.37,5097.13 1706.37,5094.13C1706.37,5091.13 1703.95,5088.71 1700.95,5088.71C1698.04,5088.71 1695.54,5091.13 1695.54,5094.13C1695.54,5097.13 1698.04,5099.54 1700.95,5099.54Z" style="fill:rgb(0,89,255);fill-rule:nonzero;"/>
                </g>
                <g transform="matrix(0.469991,0,0,0.415225,72.125,342.815)">
                    <path d="M649.195,259.973L489.395,369.973C489.307,370.034 489.22,370.096 489.134,370.159L489.006,370.255L488.879,370.352L488.755,370.451L488.632,370.552L488.51,370.655L488.391,370.759L488.273,370.865L488.157,370.973L488.043,371.082L487.931,371.193L487.82,371.306L487.711,371.419L487.604,371.535L487.499,371.652L487.396,371.77L487.295,371.89L487.195,372.011L487.098,372.134L487.002,372.258L486.909,372.384L486.817,372.51L486.727,372.638L486.64,372.768L486.554,372.898L486.47,373.03L486.388,373.163L486.308,373.297L486.231,373.433L486.155,373.569L486.081,373.707L486.01,373.846L485.94,373.985L485.873,374.126L485.807,374.268L485.744,374.411L485.683,374.554L485.624,374.699L485.568,374.845L485.513,374.991L485.461,375.139L485.41,375.287L485.362,375.436L485.317,375.586L485.273,375.737L485.232,375.888L485.193,376.04L485.156,376.193L485.121,376.346L485.089,376.501L485.059,376.655L485.032,376.811L485.006,376.967L484.984,377.123L484.963,377.28L484.945,377.438L484.929,377.596L484.916,377.755L484.905,377.914L484.896,378.073L484.89,378.233L484.886,378.393L484.885,378.554L484.886,378.714L484.89,378.874L484.896,379.034L484.905,379.194L484.916,379.353L484.929,379.511L484.945,379.669L484.963,379.827L484.984,379.984L485.006,380.14L485.032,380.296L485.059,380.452L485.089,380.607L485.121,380.761L485.156,380.914L485.193,381.067L485.232,381.219L485.273,381.371L485.317,381.521L485.362,381.671L485.41,381.82L485.461,381.968L485.513,382.116L485.568,382.262L485.624,382.408L485.683,382.553L485.744,382.697L485.807,382.839L485.873,382.981L485.94,383.122L486.01,383.262L486.081,383.4L486.155,383.538L486.231,383.674L486.308,383.81L486.388,383.944L486.47,384.077L486.554,384.209L486.64,384.339L486.727,384.469L486.817,384.597L486.909,384.724L487.002,384.849L487.098,384.973L487.195,385.096L487.295,385.217L487.396,385.337L487.499,385.455L487.604,385.572L487.711,385.688L487.82,385.802L487.931,385.914L488.043,386.025L488.157,386.134L488.273,386.242L488.391,386.348L488.51,386.452L488.632,386.555L488.755,386.656L488.879,386.755L489.006,386.852L489.134,386.948L489.264,387.042L489.395,387.134C489.395,387.134 649.195,497.134 649.195,497.134C652.752,499.582 657.451,499.582 661.008,497.134L820.807,387.134L820.938,387.042L821.068,386.948L821.197,386.852L821.323,386.755L821.448,386.656L821.571,386.555L821.692,386.452L821.811,386.348L821.929,386.242L822.045,386.134L822.159,386.025L822.272,385.914L822.382,385.802L822.491,385.688L822.598,385.572L822.703,385.455L822.806,385.337L822.907,385.217L823.007,385.096L823.104,384.973L823.2,384.849L823.293,384.724L823.385,384.597L823.475,384.469L823.563,384.339L823.649,384.209L823.732,384.077L823.814,383.944L823.894,383.81L823.972,383.674L824.047,383.538L824.121,383.4L824.193,383.262L824.262,383.122L824.33,382.981L824.395,382.839L824.458,382.697L824.519,382.553L824.578,382.408L824.635,382.262L824.689,382.116L824.742,381.968L824.792,381.82L824.84,381.671L824.886,381.521L824.929,381.371L824.971,381.219L825.01,381.067L825.046,380.914L825.081,380.761L825.113,380.607L825.143,380.452L825.171,380.296L825.196,380.14L825.219,379.984L825.239,379.827L825.257,379.669L825.273,379.511L825.287,379.353L825.298,379.194L825.306,379.034L825.312,378.874L825.316,378.714L825.317,378.554L825.316,378.393L825.312,378.233L825.306,378.073L825.298,377.914L825.287,377.755L825.273,377.596L825.257,377.438C825.257,377.438 825.248,377.36 825.248,377.36C825.23,377.194 825.206,377.029 825.179,376.865L825.171,376.811L825.143,376.655L825.113,376.501L825.081,376.346L825.046,376.193L825.01,376.04L824.971,375.888L824.929,375.737L824.886,375.586L824.84,375.436L824.792,375.287L824.742,375.139L824.689,374.991L824.635,374.845L824.578,374.699L824.519,374.554L824.458,374.411L824.395,374.268L824.33,374.126L824.262,373.985L824.193,373.846L824.121,373.707L824.047,373.569L823.972,373.433L823.894,373.297L823.814,373.163L823.732,373.03L823.649,372.898L823.563,372.768L823.475,372.638L823.385,372.51L823.293,372.384L823.2,372.258L823.104,372.134L823.007,372.011L822.907,371.89L822.806,371.77L822.703,371.652L822.598,371.535L822.491,371.419L822.382,371.306L822.272,371.193L822.159,371.082L822.045,370.973L821.929,370.865L821.811,370.759L821.692,370.655L821.571,370.552L821.448,370.451L821.323,370.352L821.197,370.255L821.068,370.159L820.938,370.065L820.807,369.973L661.008,259.973C657.451,257.525 652.752,257.525 649.195,259.973ZM716.63,433.554L655.101,391.2L593.573,433.554L655.101,475.908L716.63,433.554ZM735.001,336.2L796.529,378.554L735.001,420.908C735.001,420.908 673.472,378.554 673.472,378.554L735.001,336.2ZM575.201,336.2L567.319,341.626L513.673,378.554L575.201,420.908L636.73,378.554L575.201,336.2Z" style="fill:rgb(0,89,255);"/>
                </g>
            </g>
        </g>
    </g>
</svg>
