<svg width="56" height="35" viewBox="0 0 56 35" fill="none" xmlns="http://www.w3.org/2000/svg">
<path fill-rule="evenodd" clip-rule="evenodd" d="M27.0285 0.266824L0.741877 16.253C0.727402 16.2619 0.713093 16.2709 0.698946 16.28L0.677892 16.294L0.656999 16.3081L0.636602 16.3225L0.616366 16.3371L0.596301 16.3521L0.576723 16.3672L0.557315 16.3826L0.538234 16.3983L0.519479 16.4142L0.501056 16.4303L0.482798 16.4467L0.464866 16.4631L0.447266 16.48L0.429992 16.497L0.413049 16.5142L0.396438 16.5316L0.379987 16.5492L0.364029 16.5671L0.348241 16.5851L0.33294 16.6034L0.317804 16.6217L0.303 16.6403L0.288693 16.6592L0.274541 16.6781L0.260726 16.6973L0.247237 16.7166L0.23408 16.7361L0.221409 16.7558L0.208909 16.7756L0.196736 16.7957L0.185059 16.8159L0.173543 16.8361L0.162519 16.8566L0.151666 16.8772L0.141299 16.898L0.131269 16.9187L0.12156 16.9398L0.112349 16.961L0.103303 16.9823L0.0947483 17.0038L0.0863599 17.0253L0.0784633 17.0469L0.0710588 17.0687L0.0638249 17.0907L0.0570779 17.1126L0.0506623 17.1347L0.044578 17.1569L0.03882 17.1792L0.033554 17.2017L0.0286193 17.2241L0.0241816 17.2468L0.0199045 17.2694L0.016285 17.2921L0.0128312 17.3149L0.00986941 17.3379L0.00723389 17.3608L0.00509535 17.3839L0.00328813 17.4071L0.00180722 17.4302L0.000823288 17.4534L0.000160641 17.4767L0 17.5001L0.000160641 17.5233L0.000823288 17.5466L0.00180722 17.5698L0.00328813 17.5931L0.00509535 17.6162L0.00723389 17.6391L0.00986941 17.6621L0.0128312 17.6851L0.016285 17.7079L0.0199045 17.7306L0.0241816 17.7532L0.0286193 17.7759L0.033554 17.7984L0.03882 17.8208L0.044578 17.843L0.0506623 17.8653L0.0570779 17.8874L0.0638249 17.9095L0.0710588 17.9313L0.0784633 17.9531L0.0863599 17.9747L0.0947483 17.9962L0.103303 18.0177L0.112349 18.0389L0.12156 18.0602L0.131269 18.0812L0.141299 18.1022L0.151666 18.1228L0.162519 18.1434L0.173543 18.1639L0.185059 18.1843L0.196736 18.2043L0.208909 18.2244L0.221409 18.2442L0.23408 18.2639L0.247237 18.2834L0.260726 18.3027L0.274541 18.3219L0.288693 18.3408L0.303 18.3597L0.317804 18.3783L0.33294 18.3967L0.348241 18.4149L0.364029 18.4329L0.379987 18.4508L0.396438 18.4684L0.413049 18.4858L0.429992 18.503L0.447266 18.52L0.464866 18.5368L0.482798 18.5534L0.501056 18.5697L0.519479 18.5858L0.538234 18.6017L0.557315 18.6174L0.576723 18.6328L0.596301 18.6479L0.616366 18.6628L0.636602 18.6775L0.656999 18.6919L0.677892 18.706L0.698946 18.72L0.720331 18.7336L0.741877 18.747L27.0285 34.7332C27.6136 35.0889 28.3866 35.0889 28.9717 34.7332L55.2581 18.747L55.2797 18.7336L55.301 18.72L55.3223 18.706L55.343 18.6919L55.3636 18.6775L55.3838 18.6628L55.4037 18.6479L55.4233 18.6328L55.4427 18.6174L55.4618 18.6017L55.4805 18.5858L55.4991 18.5697L55.5172 18.5534L55.5351 18.5368L55.5527 18.52L55.57 18.503L55.5869 18.4858L55.6036 18.4684L55.62 18.4508L55.636 18.4329L55.6518 18.4149L55.6671 18.3967L55.6822 18.3783L55.697 18.3597L55.7115 18.3408L55.7256 18.3219L55.7393 18.3027L55.7528 18.2834L55.7659 18.2639L55.7787 18.2442L55.7911 18.2244L55.8033 18.2043L55.8151 18.1843L55.8265 18.1639L55.8376 18.1434L55.8483 18.1228L55.8587 18.1022L55.8687 18.0812L55.8784 18.0602L55.8878 18.0389L55.8967 18.0177L55.9054 17.9962L55.9136 17.9747L55.9215 17.9531L55.9291 17.9313L55.9362 17.9095L55.9431 17.8874L55.9495 17.8653L55.9554 17.843L55.9612 17.8208L55.9664 17.7984L55.9714 17.7759L55.976 17.7532L55.9801 17.7306L55.9839 17.7079L55.9872 17.6851L55.9901 17.6621L55.9928 17.6391L55.9951 17.6162L55.9969 17.5931L55.9982 17.5698L55.9992 17.5466L55.9998 17.5233L56 17.5001L55.9998 17.4767L55.9992 17.4534L55.9982 17.4302L55.9969 17.4071L55.9951 17.3839L55.9928 17.3608L55.9901 17.3379L55.9886 17.3265C55.9857 17.3024 55.9817 17.2784 55.9773 17.2546L55.976 17.2468L55.9714 17.2241L55.9664 17.2017L55.9612 17.1792L55.9554 17.1569L55.9495 17.1347L55.9431 17.1126L55.9362 17.0907L55.9291 17.0687L55.9215 17.0469L55.9136 17.0253L55.9054 17.0038L55.8967 16.9823L55.8878 16.961L55.8784 16.9398L55.8687 16.9187L55.8587 16.898L55.8483 16.8772L55.8376 16.8566L55.8265 16.8361L55.8151 16.8159L55.8033 16.7957L55.7911 16.7756L55.7787 16.7558L55.7659 16.7361L55.7528 16.7166L55.7393 16.6973L55.7256 16.6781L55.7115 16.6592L55.697 16.6403L55.6822 16.6217L55.6671 16.6034L55.6518 16.5851L55.636 16.5671L55.62 16.5492L55.6036 16.5316L55.5869 16.5142L55.57 16.497L55.5527 16.48L55.5351 16.4631L55.5172 16.4467L55.4991 16.4303L55.4805 16.4142L55.4618 16.3983L55.4427 16.3826L55.4233 16.3672L55.4037 16.3521L55.3838 16.3371L55.3636 16.3225L55.343 16.3081L55.3223 16.294L55.301 16.28L55.2797 16.2664L55.2581 16.253L28.9717 0.266824C28.3866 -0.0889413 27.6136 -0.0889413 27.0285 0.266824ZM38.1213 25.4931L28 19.3379L17.8788 25.4931L28 31.6484L38.1213 25.4931ZM41.1433 11.3448L51.2645 17.5001L41.1433 23.6553L31.022 17.5001L41.1433 11.3448ZM14.8567 11.3448L13.5601 12.1334L4.73553 17.5001L14.8567 23.6553L24.978 17.5001L14.8567 11.3448Z" fill="#2479FA"/>
</svg>
