<svg width="58" height="60" viewBox="0 0 58 60" fill="none" xmlns="http://www.w3.org/2000/svg">
<path d="M57.0829 54.6505L42.8028 39.7985C46.4745 35.4338 48.4862 29.9421 48.4862 24.225C48.4862 10.8675 37.6187 0 24.2612 0C10.9037 0 0.0361328 10.8675 0.0361328 24.225C0.0361328 37.5824 10.9037 48.45 24.2612 48.45C29.2758 48.45 34.0544 46.9375 38.14 44.0663L52.5286 59.031C53.1301 59.6556 53.939 60 54.8058 60C55.6263 60 56.4046 59.6872 56.9955 59.1184C58.251 57.9103 58.291 55.907 57.0829 54.6505ZM24.2612 6.31956C34.1345 6.31956 42.1666 14.3517 42.1666 24.225C42.1666 34.0982 34.1345 42.1304 24.2612 42.1304C14.3879 42.1304 6.35571 34.0982 6.35571 24.225C6.35571 14.3517 14.3879 6.31956 24.2612 6.31956Z" fill="#121223"/>
</svg>
