<svg width="28" height="28" viewBox="0 0 28 28" fill="none" xmlns="http://www.w3.org/2000/svg">
<g clip-path="url(#clip0)">
<path d="M25.7658 5.52167L28 3.38434V2.9165H20.2603L14.7443 16.6458L8.46883 2.9165H0.3535V3.38434L2.96333 6.52617C3.21767 6.75834 3.35067 7.09784 3.31683 7.43967V19.7865C3.39733 20.231 3.25267 20.6883 2.94 21.0115L0 24.5745V25.0365H8.33583V24.5687L5.39583 21.0115C5.07733 20.6872 4.92683 20.238 4.991 19.7865V9.10684L12.3083 25.0423H13.1588L19.4507 9.10684V21.8013C19.4507 22.1362 19.4507 22.205 19.2313 22.4243L16.968 24.6142V25.0832H27.9487V24.6153L25.767 22.4792C25.5757 22.3345 25.4765 22.0918 25.5173 21.8562V6.14467C25.4765 5.90784 25.5745 5.66517 25.7658 5.52167Z" fill="#212121"/>
</g>
<defs>
<clipPath id="clip0">
<rect width="28" height="28" fill="white"/>
</clipPath>
</defs>
</svg>
