<svg id="NFT_fixB.svg" xmlns="http://www.w3.org/2000/svg" xmlns:xlink="http://www.w3.org/1999/xlink" width="883" height="897" viewBox="0 0 883 897">
  <path id="長方形_4" data-name="長方形 4" fill-rule="evenodd" fill="#999" class="cls-1" d="M63.164,226.389l388-224.4L839,226.1l-0.166,448.5-388,224.4L63,674.892Zm45.981,26.484,342-197.878L793,252.619l-0.147,395.5L450.851,846,109,648.376Zm343.482-92.558L384,198.052V761.844l-46-29.686V170.052l114.627-67.737L595,186.152l-28,42.931ZM703,309.2V663.411l-50.428,29.152-0.118-412.045L591,241.111,616,201.2l152.454,96.316,0.025,56.362ZM261.775,689.655L190,418V648.162L149.417,624.7l0.129-328.183L191.8,272.071,247,461V230.132l50-28.93V710.018ZM365,421H557v57H365V421Z" transform="translate(-13 -2)"/>
</svg>
