<svg width="15" height="16" viewBox="0 0 15 16" fill="none" xmlns="http://www.w3.org/2000/svg">
<path d="M11.6352 5.25407C11.6352 4.12582 11.187 3.04378 10.3892 2.24599C9.5914 1.4482 8.50936 1 7.38111 1C6.25286 1 5.17082 1.4482 4.37302 2.24599C3.57523 3.04378 3.12704 4.12582 3.12704 5.25407C3.12704 10.2172 1 11.6352 1 11.6352H13.7622C13.7622 11.6352 11.6352 10.2172 11.6352 5.25407Z" stroke="#121223" stroke-width="1.5" stroke-linecap="round" stroke-linejoin="round"/>
<path d="M8.60748 14.2935C8.48283 14.5083 8.30391 14.6867 8.08864 14.8107C7.87337 14.9347 7.62931 15 7.38089 15C7.13246 15 6.8884 14.9347 6.67313 14.8107C6.45787 14.6867 6.27895 14.5083 6.1543 14.2935" stroke="#121223" stroke-width="1.5" stroke-linecap="round" stroke-linejoin="round"/>
</svg>
