<svg width="60" height="60" viewBox="0 0 60 60" fill="none" xmlns="http://www.w3.org/2000/svg">
<path d="M58.0829 54.6505L43.8028 39.7985C47.4745 35.4338 49.4862 29.9421 49.4862 24.225C49.4862 10.8675 38.6187 0 25.2612 0C11.9037 0 1.03613 10.8675 1.03613 24.225C1.03613 37.5824 11.9037 48.45 25.2612 48.45C30.2758 48.45 35.0544 46.9375 39.14 44.0663L53.5286 59.031C54.1301 59.6556 54.939 60 55.8058 60C56.6263 60 57.4046 59.6872 57.9955 59.1184C59.251 57.9103 59.291 55.907 58.0829 54.6505ZM25.2612 6.31956C35.1345 6.31956 43.1666 14.3517 43.1666 24.225C43.1666 34.0982 35.1345 42.1304 25.2612 42.1304C15.3879 42.1304 7.35571 34.0982 7.35571 24.225C7.35571 14.3517 15.3879 6.31956 25.2612 6.31956Z" fill="#3D80FF"/>
</svg>
