<svg width="16" height="17" viewBox="0 0 16 17" fill="none" xmlns="http://www.w3.org/2000/svg">
<path d="M12.25 5.5C13.4926 5.5 14.5 4.49264 14.5 3.25C14.5 2.00736 13.4926 1 12.25 1C11.0074 1 10 2.00736 10 3.25C10 4.49264 11.0074 5.5 12.25 5.5Z" stroke="#A2A2AD" stroke-width="1.5" stroke-linecap="round" stroke-linejoin="round"/>
<path d="M3.25 10.75C4.49264 10.75 5.5 9.74264 5.5 8.5C5.5 7.25736 4.49264 6.25 3.25 6.25C2.00736 6.25 1 7.25736 1 8.5C1 9.74264 2.00736 10.75 3.25 10.75Z" stroke="#A2A2AD" stroke-width="1.5" stroke-linecap="round" stroke-linejoin="round"/>
<path d="M12.25 16C13.4926 16 14.5 14.9926 14.5 13.75C14.5 12.5074 13.4926 11.5 12.25 11.5C11.0074 11.5 10 12.5074 10 13.75C10 14.9926 11.0074 16 12.25 16Z" stroke="#A2A2AD" stroke-width="1.5" stroke-linecap="round" stroke-linejoin="round"/>
<path d="M5.19238 9.63281L10.3149 12.6178" stroke="#A2A2AD" stroke-width="1.5" stroke-linecap="round" stroke-linejoin="round"/>
<path d="M10.3074 4.38281L5.19238 7.36781" stroke="#A2A2AD" stroke-width="1.5" stroke-linecap="round" stroke-linejoin="round"/>
</svg>
