<svg width="24" height="24" viewBox="0 0 24 24" fill="none" xmlns="http://www.w3.org/2000/svg">
<g clip-path="url(#clip0)">
<path d="M24 8.33502L20.3353 4.67029C20.9259 4.07968 21.3079 3.69758 21.4032 3.60233L20.398 2.59706C20.2546 2.74042 19.8788 3.11621 19.33 3.66502L15.6652 0.000244141L14.0737 1.59176L22.4085 9.92653L24 8.33502Z" fill="#3D80FF"/>
<path d="M9.40379 4.16766L14.1156 8.8795C12.4153 10.5798 10.5778 12.4173 8.87952 14.1156L4.1674 9.40348L1.54968 12.0212L11.9786 22.4501L14.5962 19.8324L9.88469 15.1209C11.584 13.4215 13.4219 11.5837 15.1208 9.88476L19.8326 14.5966L22.4503 11.9789L12.0215 1.54999L9.40379 4.16766Z" fill="#3D80FF"/>
<path d="M0 15.665L3.66502 19.33C3.08279 19.9122 2.70231 20.2927 2.59777 20.3973L3.60303 21.4025C3.71127 21.2942 4.09128 20.9143 4.67028 20.3353L8.33477 23.9998L9.92628 22.4083L1.59151 14.0735L0 15.665Z" fill="#3D80FF"/>
</g>
<defs>
<clipPath id="clip0">
<rect width="24" height="24" fill="white"/>
</clipPath>
</defs>
</svg>
