<svg width="24" height="24" viewBox="0 0 24 24" fill="none" xmlns="http://www.w3.org/2000/svg">
<g clip-path="url(#clip0)">
<path d="M23.9655 9.24641C23.8829 8.99184 23.6629 8.80631 23.398 8.76787L15.9579 7.6867L12.6305 0.944838C12.5121 0.704839 12.2677 0.552917 12 0.552917C11.7324 0.552917 11.488 0.704839 11.3695 0.944838L8.04198 7.6867L0.602007 8.76787C0.337211 8.80631 0.117134 8.99184 0.0344468 9.24637C-0.0482872 9.50094 0.0207125 9.78036 0.212384 9.96716L5.59586 15.215L4.32518 22.6251C4.2799 22.8889 4.38837 23.1554 4.60488 23.3128C4.72737 23.4018 4.87244 23.447 5.01822 23.447C5.13016 23.447 5.24247 23.4204 5.34532 23.3663L12 19.8676L18.6544 23.3662C18.8913 23.4908 19.1784 23.4701 19.3949 23.3127C19.6114 23.1554 19.7199 22.8888 19.6747 22.625L18.4036 15.215L23.7877 9.96711C23.9793 9.78036 24.0483 9.50094 23.9655 9.24641Z" fill="#2479FA"/>
</g>
<defs>
<clipPath id="clip0">
<rect width="24" height="24" fill="white"/>
</clipPath>
</defs>
</svg>
