<svg width="128" height="164" viewBox="0 0 128 164" fill="none" xmlns="http://www.w3.org/2000/svg">
<path d="M0.419819 87.7422C-0.585517 79.0621 0.252262 70.6824 2.53102 62.9371C10.1046 37.1971 33.864 18.2677 62.0469 17.9338V1.10771C62.0469 0.17293 63.2198 -0.327848 63.9905 0.2397L98.7416 25.6792C99.3113 26.1132 99.3113 26.9812 98.7416 27.3818L64.0241 52.8214C63.2198 53.3889 62.0804 52.8881 62.0804 51.9533V35.1606C43.5487 35.4611 27.7314 46.8454 20.9287 62.9371C18.3483 69.0132 17.0414 75.7236 17.41 82.7679C17.9127 92.4496 21.5654 101.363 27.3293 108.575C30.4123 112.414 29.6751 118.023 25.6873 120.927C21.9005 123.698 16.6057 122.93 13.6902 119.258C6.55237 110.377 1.79378 99.5606 0.419819 87.7422ZM100.752 55.4254C106.55 62.6032 110.202 71.5504 110.672 81.2321C111.04 88.3098 109.7 95.0202 107.153 101.063C100.35 117.155 84.5329 128.572 66.0012 128.839V112.047C66.0012 111.112 64.8283 110.611 64.0576 111.179L29.3065 136.618C28.7368 137.052 28.7368 137.92 29.3065 138.321L64.0241 163.76C64.8283 164.328 65.9677 163.827 65.9677 162.892V146.066C94.1506 145.766 117.944 126.836 125.484 101.063C127.762 93.3176 128.567 84.9379 127.595 76.2578C126.254 64.4394 121.496 53.6226 114.358 44.7421C111.409 41.0698 106.148 40.3019 102.361 43.0729C98.4065 45.9774 97.6693 51.5861 100.752 55.4254Z" fill="#0059FF"/>
</svg>
