<svg width="21" height="24" viewBox="0 0 21 24" fill="none" xmlns="http://www.w3.org/2000/svg">
<path d="M0 2.23255C0 0.999548 0.989682 0 2.21052 0H14.3684C15.5892 0 16.5789 0.999548 16.5789 2.23255V17.3023C16.5789 18.5353 15.5892 19.5348 14.3684 19.5348H2.21052C0.989682 19.5348 0 18.5353 0 17.3023V2.23255Z" fill="#3D80FF"/>
<path opacity="0.6" d="M4 3.62857C4 2.17685 5.01482 1 6.26667 1H18.7333C19.9852 1 21 2.17685 21 3.62857V21.3714C21 22.8231 19.9852 24 18.7333 24H6.26667C5.01482 24 4 22.8231 4 21.3714V3.62857Z" fill="#3D80FF"/>
</svg>
