<svg width="28" height="28" viewBox="0 0 28 28" fill="none" xmlns="http://www.w3.org/2000/svg">
<path d="M28 5.69325C26.9587 6.15 25.8492 6.45275 24.6925 6.59975C25.8825 5.88925 26.7908 4.77275 27.2178 3.427C26.1082 4.0885 24.8832 4.55575 23.5777 4.8165C22.5243 3.69475 21.0228 3 19.3848 3C16.2068 3 13.6482 5.5795 13.6482 8.74175C13.6482 9.19675 13.6868 9.63425 13.7812 10.0507C9.009 9.818 4.78625 7.53075 1.9495 4.0465C1.45425 4.90575 1.16375 5.88925 1.16375 6.948C1.16375 8.936 2.1875 10.6982 3.7135 11.7185C2.79125 11.701 1.8865 11.4332 1.12 11.0115C1.12 11.029 1.12 11.0517 1.12 11.0745C1.12 13.864 3.10975 16.181 5.719 16.7147C5.25175 16.8425 4.7425 16.9037 4.214 16.9037C3.8465 16.9037 3.4755 16.8827 3.12725 16.8057C3.871 19.079 5.9815 20.7502 8.491 20.8045C6.538 22.3322 4.05825 23.2527 1.37375 23.2527C0.903 23.2527 0.4515 23.2317 0 23.174C2.54275 24.8137 5.55625 25.75 8.806 25.75C19.369 25.75 25.144 17 25.144 9.4155C25.144 9.16175 25.1353 8.91675 25.123 8.6735C26.2622 7.865 27.2195 6.85525 28 5.69325Z" fill="#121223"/>
</svg>
