<svg width="24" height="24" viewBox="0 0 24 24" fill="none" xmlns="http://www.w3.org/2000/svg">
<path d="M23.2784 19.7945L21.7852 18.3013L18.3013 21.7852L19.7945 23.2784C20.7565 24.2405 22.3163 24.2405 23.2784 23.2784C24.2405 22.3163 24.2405 20.7565 23.2784 19.7945Z" fill="#3D80FF"/>
<path d="M22.4808 5.04379L20.4718 0.00360107L18.8982 1.57719L20.9072 6.61738L22.4808 5.04379Z" fill="#3D80FF"/>
<path d="M19.8248 7.69979L17.8158 2.65961L14.6423 5.83309L18.1669 9.35771L19.8248 7.69979Z" fill="#3D80FF"/>
<path d="M15.9075 9.08688L4.18814 20.8061L3.19378 19.8118L14.9131 8.09252L13.2955 6.47491L0.875953 18.8944C-0.291984 20.0624 -0.291984 21.956 0.875953 23.124C2.04389 24.2919 3.93755 24.2919 5.10548 23.124L17.525 10.7044L15.9075 9.08688Z" fill="#3D80FF"/>
<path d="M7.83347 9.94823L9.94823 7.83347L5.63939 3.52463L0 0L3.52463 5.63939L7.83347 9.94823Z" fill="#3D80FF"/>
<path d="M19.0112 15.5273L18.3266 16.2119L16.1665 14.0518L14.0518 16.1665L16.2119 18.3266L15.5273 19.0112L17.307 20.7909L20.7909 17.307L19.0112 15.5273Z" fill="#3D80FF"/>
</svg>
