<svg width="24" height="24" viewBox="0 0 24 24" fill="none" xmlns="http://www.w3.org/2000/svg">
<path d="M19.0312 11.2687H12.7031V6.92041C13.5198 6.62918 14.1094 5.85602 14.1094 4.94055C14.1094 3.7774 13.1632 2.83118 12 2.83118C10.8368 2.83118 9.89062 3.7774 9.89062 4.94055C9.89062 5.85602 10.4802 6.62918 11.2969 6.92041V11.2687H4.96875C3.80559 11.2687 2.85938 12.2149 2.85938 13.3781V20.4093C2.85938 21.5725 3.80559 22.5187 4.96875 22.5187H8.31544C9.12502 22.5187 9.85078 22.0737 10.2133 21.3507L10.8278 20.0914C10.9473 19.8538 11.1918 19.7062 11.4657 19.7062H12.5341C12.8081 19.7062 13.0526 19.8538 13.1686 20.0845L13.79 21.3575C14.1491 22.0737 14.8749 22.5187 15.6845 22.5187H19.0312C20.1944 22.5187 21.1406 21.5725 21.1406 20.4093V13.3781C21.1406 12.2149 20.1944 11.2687 19.0312 11.2687Z" fill="#3D80FF"/>
<path d="M18.9166 8.39986C19.459 7.31911 19.7344 6.15525 19.7344 4.94053C19.7344 3.72581 19.459 2.562 18.9166 1.4812L17.66 2.11153C18.1036 2.99526 18.3281 3.94697 18.3281 4.94053C18.3281 5.93409 18.1036 6.8858 17.66 7.76953L18.9166 8.39986Z" fill="#3D80FF"/>
<path d="M6.33998 7.76953C5.89641 6.8858 5.67188 5.93414 5.67188 4.94053C5.67188 3.94692 5.89641 2.99526 6.33998 2.11153L5.08341 1.4812C4.54097 2.562 4.26562 3.72586 4.26562 4.94053C4.26562 6.1552 4.54097 7.31906 5.08341 8.39986L6.33998 7.76953Z" fill="#3D80FF"/>
<path d="M8.8545 6.51296C8.60869 6.0227 8.48438 5.49329 8.48438 4.94054C8.48438 4.38779 8.60864 3.85838 8.8545 3.36812L7.59656 2.7392C7.25255 3.42652 7.07812 4.16738 7.07812 4.94054C7.07812 5.7137 7.25255 6.4546 7.59656 7.14193L8.8545 6.51296Z" fill="#3D80FF"/>
<path d="M16.4034 7.14192C16.7475 6.45459 16.9219 5.71368 16.9219 4.94053C16.9219 4.16737 16.7475 3.42646 16.4034 2.73914L15.1455 3.3681C15.3914 3.85837 15.5156 4.38778 15.5156 4.94053C15.5156 5.49328 15.3914 6.02268 15.1455 6.51295L16.4034 7.14192Z" fill="#3D80FF"/>
<path d="M22.5469 14.0812H24V19.7062H22.5469V14.0812Z" fill="#3D80FF"/>
<path d="M0 14.0812H1.45312V19.7062H0V14.0812Z" fill="#3D80FF"/>
</svg>
