<svg width="24" height="24" viewBox="0 0 24 24" fill="none" xmlns="http://www.w3.org/2000/svg">
<path d="M24 12C24 18.6274 18.6274 24 12 24C5.37258 24 0 18.6274 0 12C0 5.37258 5.37258 0 12 0C18.6274 0 24 5.37258 24 12Z" fill="#F5AC15"/>
<path d="M12.7179 14.9424L13.1433 4H10.1182L10.5672 14.9424H12.7179ZM11.6307 20C12.5288 20 13.2851 19.2437 13.2851 18.3693C13.2851 17.4712 12.5288 16.7149 11.6307 16.7149C10.7326 16.7149 10 17.4712 10 18.3693C10 19.2437 10.7326 20 11.6307 20Z" fill="white"/>
</svg>
