<svg width="28" height="28" viewBox="0 0 28 28" fill="none" xmlns="http://www.w3.org/2000/svg">
<g clip-path="url(#clip0)">
<path d="M14.5004 27.9836C16.6415 27.6794 18.5186 25.4446 19.6997 22.1443C17.9923 21.7619 16.2499 21.5567 14.5004 21.5322V27.9836Z" fill="#2775C9"/>
<path d="M17.9213 27.4588C18.0478 27.4221 18.1739 27.3852 18.299 27.3446C18.4046 27.3107 18.5087 27.274 18.6127 27.2376C18.7359 27.1951 18.8586 27.1514 18.9807 27.1049C19.0848 27.0654 19.1879 27.0233 19.2913 26.9813C19.4105 26.9312 19.5295 26.8814 19.6473 26.8313C19.7502 26.7861 19.8523 26.7387 19.9544 26.691C20.07 26.6365 20.1851 26.5811 20.2992 26.5234C20.3994 26.4723 20.4993 26.4203 20.5995 26.3668C20.7116 26.3067 20.8231 26.2454 20.9337 26.1823C21.0339 26.1256 21.1304 26.0687 21.2279 26.0101C21.3364 25.9433 21.4444 25.8766 21.5517 25.8099C21.6477 25.7489 21.7435 25.6868 21.8381 25.6228C21.9436 25.5517 22.0477 25.4776 22.1513 25.4036C22.2444 25.3369 22.337 25.2704 22.4279 25.2035C22.5281 25.1263 22.6307 25.0464 22.7311 24.9662C22.8203 24.8951 22.9093 24.8245 22.997 24.7515C23.0969 24.6684 23.1927 24.5824 23.2897 24.4964C23.3747 24.4209 23.4602 24.3461 23.5433 24.2686C23.6389 24.1794 23.732 24.0871 23.825 23.9955C23.9057 23.9158 23.9873 23.8374 24.0662 23.7558C24.0809 23.7406 24.0948 23.7242 24.1099 23.7086C23.0185 23.1449 21.8688 22.7024 20.6811 22.3892C20.0634 24.359 18.9641 26.1442 17.4829 27.5824C17.5235 27.5719 17.564 27.5633 17.6046 27.5528C17.7116 27.5228 17.8167 27.4898 17.9213 27.4588Z" fill="#2775C9"/>
<path d="M28.0001 14.5117H22C21.9773 16.8545 21.6374 19.1833 20.9897 21.4349C22.3106 21.7877 23.5853 22.295 24.7875 22.9462C26.7613 20.5672 27.8911 17.6012 28.0001 14.5117Z" fill="#2775C9"/>
<path d="M14.5004 13.5114H20.9991C20.9737 11.2514 20.6422 9.00545 20.0139 6.83447C18.2044 7.24717 16.3561 7.46756 14.5004 7.492V13.5114Z" fill="#2775C9"/>
<path d="M14.5004 0.0395508V6.4909C16.2499 6.46622 17.9923 6.26121 19.6997 5.87882C18.5186 2.5785 16.6415 0.343756 14.5004 0.0395508Z" fill="#2775C9"/>
<path d="M14.5004 20.5311C16.3561 20.5557 18.2044 20.7761 20.0139 21.1888C20.6422 19.0179 20.9737 16.7716 20.9991 14.5117H14.5004V20.5311Z" fill="#2775C9"/>
<path d="M24.7875 5.07666C23.5853 5.72783 22.3106 6.23508 20.9897 6.58791C21.6374 8.83952 21.9773 11.1683 22 13.5111H28.0001C27.8909 10.4219 26.761 7.45581 24.7875 5.07666Z" fill="#2775C9"/>
<path d="M24.1114 4.31739C24.0967 4.30249 24.0828 4.28636 24.0684 4.27097C23.9892 4.18936 23.9071 4.11068 23.8265 4.03127C23.7336 3.93964 23.641 3.84703 23.5452 3.75809C23.4624 3.68088 23.3766 3.60782 23.2916 3.53086C23.1946 3.44485 23.0976 3.35811 22.9979 3.27503C22.9114 3.20197 22.8227 3.13209 22.7347 3.06196C22.6346 2.98084 22.5319 2.90021 22.4288 2.82275C22.3384 2.75458 22.2468 2.68861 22.1547 2.62264C22.0501 2.54738 21.945 2.47237 21.8385 2.40078C21.7449 2.33774 21.6499 2.27616 21.5548 2.21581C21.4466 2.14617 21.3386 2.078 21.2284 2.01203C21.1319 1.95412 21.0344 1.89694 20.9366 1.84148C20.8247 1.77746 20.7126 1.7154 20.5994 1.6548C20.4993 1.60471 20.3993 1.55022 20.2991 1.50013C20.1841 1.44198 20.068 1.38603 19.949 1.33105C19.8488 1.2834 19.7472 1.23698 19.6441 1.19178C19.5256 1.13924 19.4058 1.09184 19.2863 1.04175C19.1832 0.999723 19.0806 0.958185 18.9765 0.918602C18.8551 0.872177 18.7319 0.828685 18.6088 0.786169C18.5047 0.749518 18.4006 0.713111 18.295 0.678903C18.1699 0.638343 18.0448 0.601447 17.9163 0.564307C17.8122 0.533764 17.7076 0.502733 17.6023 0.474878C17.562 0.463883 17.521 0.455331 17.4804 0.444824C18.9616 1.88302 20.0607 3.66793 20.6786 5.63806C21.8676 5.32481 23.0189 4.88206 24.1114 4.31739Z" fill="#2775C9"/>
<path d="M0 13.5111H6.00005C6.02277 11.1683 6.36265 8.83952 7.01015 6.58791C5.68949 6.23533 4.41476 5.72807 3.2126 5.07666C1.23881 7.45557 0.108976 10.4219 0 13.5111Z" fill="#2775C9"/>
<path d="M13.4996 27.9836V21.5322C11.7501 21.5569 10.0078 21.7619 8.30029 22.1443C9.48119 25.4446 11.3585 27.6794 13.4996 27.9836Z" fill="#2775C9"/>
<path d="M13.4995 14.5117H7.00079C7.0262 16.7716 7.35753 19.0179 7.98598 21.1888C9.79557 20.7759 11.6435 20.5555 13.4995 20.5311V14.5117Z" fill="#2775C9"/>
<path d="M13.4996 0.0395508C11.3585 0.343756 9.48119 2.5785 8.30029 5.87882C10.0078 6.26146 11.7501 6.46646 13.4996 6.4909V0.0395508Z" fill="#2775C9"/>
<path d="M13.4995 7.492C11.6438 7.46756 9.79557 7.24717 7.98598 6.83447C7.35753 9.00545 7.0262 11.2514 7.00079 13.5114H13.4995V7.492Z" fill="#2775C9"/>
<path d="M10.5157 0.444336C10.4751 0.454843 10.4346 0.463395 10.394 0.473901C10.288 0.502245 10.1834 0.533765 10.0778 0.564308C9.95225 0.600959 9.82764 0.637854 9.70156 0.677926C9.59527 0.712378 9.49069 0.74903 9.38611 0.785436C9.2637 0.828685 9.14104 0.871689 9.01984 0.917625C8.91527 0.957697 8.81215 0.999235 8.70855 1.04175C8.58956 1.09184 8.47032 1.14193 8.35279 1.19178C8.24968 1.23698 8.14779 1.28438 8.04565 1.33203C7.93008 1.38652 7.815 1.44198 7.70089 1.49965C7.60071 1.55071 7.50053 1.603 7.40059 1.65627C7.28844 1.71638 7.17726 1.77795 7.06682 1.84099C6.96664 1.89694 6.86817 1.95437 6.77166 2.01301C6.66293 2.07849 6.55541 2.14617 6.44839 2.21312C6.35212 2.2747 6.25659 2.33676 6.16202 2.40078C6.05647 2.47188 5.95238 2.54592 5.84878 2.61995C5.75568 2.68666 5.66308 2.75312 5.57194 2.82031C5.46956 2.89728 5.37182 2.97742 5.26871 3.05732C5.17977 3.12843 5.0901 3.19904 5.00311 3.27259C4.90293 3.35517 4.80788 3.44069 4.71137 3.52621C4.62585 3.60245 4.5396 3.67648 4.45603 3.7554C4.36098 3.8441 4.26838 3.93622 4.17553 4.0276C4.0949 4.10726 4.0128 4.18593 3.93363 4.26779C3.91921 4.28294 3.90529 4.29955 3.89014 4.31495C4.98137 4.87889 6.13124 5.32139 7.31898 5.63463C7.93668 3.66573 9.03524 1.8818 10.5157 0.444336Z" fill="#2775C9"/>
<path d="M4.17339 23.9916C4.26648 24.0832 4.35909 24.1758 4.45462 24.265C4.5377 24.3419 4.62322 24.415 4.70849 24.492C4.8055 24.5782 4.9025 24.6647 5.00219 24.7478C5.08869 24.8204 5.1769 24.8905 5.26535 24.9609C5.36553 25.042 5.46546 25.1226 5.57151 25.2006C5.66167 25.2682 5.7533 25.3337 5.84493 25.4009C5.9495 25.4759 6.05506 25.5509 6.16159 25.623C6.25518 25.6861 6.35022 25.7476 6.44527 25.8082C6.55352 25.8776 6.66151 25.9458 6.77171 26.0118C6.86823 26.0699 6.96572 26.1268 7.06346 26.1826C7.17536 26.2466 7.28752 26.3086 7.40065 26.369C7.50058 26.4191 7.60076 26.4736 7.70094 26.5237C7.81603 26.5818 7.93209 26.6378 8.05108 26.693C8.15126 26.7401 8.25291 26.7866 8.35602 26.832C8.47453 26.8845 8.59401 26.932 8.71374 26.982C8.81685 27.0241 8.91947 27.0656 9.02356 27.1052C9.145 27.1519 9.26815 27.1954 9.3913 27.2379C9.49539 27.2743 9.59948 27.3109 9.70503 27.3449C9.83013 27.3854 9.95524 27.4226 10.0838 27.4595C10.1878 27.49 10.2924 27.5211 10.3975 27.5492C10.4381 27.5602 10.4791 27.5687 10.5197 27.5792C9.03847 26.1408 7.93942 24.3559 7.32148 22.3857C6.13374 22.6992 4.98387 23.1417 3.89264 23.7059C3.9073 23.7208 3.92123 23.7369 3.93589 23.7523C4.0109 23.8335 4.09178 23.9121 4.17339 23.9916Z" fill="#2775C9"/>
<path d="M3.2126 22.9462C4.41476 22.295 5.68949 21.7877 7.01015 21.4349C6.36265 19.1833 6.02277 16.8545 6.00005 14.5117H0C0.109221 17.6009 1.23881 20.567 3.2126 22.9462Z" fill="#2775C9"/>
</g>
<defs>
<clipPath id="clip0">
<rect width="28" height="28" fill="white"/>
</clipPath>
</defs>
</svg>
