<svg width="24" height="24" viewBox="0 0 24 24" fill="none" xmlns="http://www.w3.org/2000/svg">
<path fill-rule="evenodd" clip-rule="evenodd" d="M19.8929 2.9538C20.0366 3.19197 20.2822 3.32809 20.4957 3.49633C22.233 5.35584 23.5691 7.61664 23.9318 10.8507C23.961 11.4042 24.0217 11.9262 23.9921 12.5386C23.8546 12.6222 23.9696 12.9582 23.9318 13.1414C23.6289 16.0535 22.4785 18.1181 21.0383 19.8929C20.7754 20.032 20.6805 20.3389 20.4355 20.4957C18.5259 22.404 16.0056 23.7016 12.4783 23.9921C12.3349 23.892 11.7777 23.892 11.6343 23.9921C11.6142 23.9921 11.5942 23.9921 11.5741 23.9921C11.5539 23.9921 11.5339 23.9921 11.5138 23.9921C11.4302 23.8546 11.0942 23.9696 10.911 23.9318C8.13108 23.6172 6.04311 22.6107 4.34027 21.2191C4.19421 21.0236 3.97274 20.9035 3.79774 20.7369C3.60195 20.4906 3.38089 20.2696 3.13464 20.0738C1.54188 18.2707 0.36404 16.0526 0.0602816 12.9605C0.022485 12.7773 0.137442 12.4413 0 12.3577C0 12.1568 0 11.9559 0 11.7549C0.138708 11.6122 0.0215205 11.2139 0.0602816 10.9712C0.362775 8.15923 1.37635 6.05818 2.77295 4.34027C2.96851 4.19421 3.08859 3.97274 3.25521 3.79774C3.50146 3.60195 3.72251 3.38089 3.9183 3.13464C4.07057 2.98551 4.28397 2.89749 4.40056 2.71267C6.11611 1.374 8.15706 0.360665 10.911 0.0602816C11.1581 0.0663097 11.4051 0.0721571 11.5741 0C11.7174 0.100067 12.2747 0.100067 12.418 0C12.4381 0 12.4582 0 12.4783 0C12.5619 0.137442 12.8979 0.022485 13.0811 0.0602816C16.0175 0.359037 18.102 1.50957 19.8929 2.9538ZM12.1166 0.964505C11.7973 0.895182 11.3925 0.935811 10.8507 1.02479C8.25478 1.26212 6.42644 2.26701 4.88281 3.55661C4.33039 3.88834 3.90474 4.34684 3.55661 4.88281C2.25773 6.4573 1.22944 8.30252 1.02479 10.9712C0.887345 11.0549 1.0023 11.3909 0.964505 11.5741C0.864378 11.7372 0.864378 12.3152 0.964505 12.4783C1.00182 12.6419 0.887948 12.9567 1.02479 13.0208C1.25548 15.8243 2.3643 17.7497 3.79774 19.3504C3.79774 19.3705 3.79774 19.3906 3.79774 19.4107C4.12254 19.7892 4.46789 20.1471 4.88281 20.4355C6.66642 21.907 8.79002 23.0387 12.0563 23.0276C12.3454 23.1742 12.8807 23.0494 13.1414 22.9673C15.6709 22.744 17.4585 21.7787 18.9887 20.556C19.5245 20.1876 20.0129 19.7718 20.3752 19.2298C21.7745 17.4543 22.9673 15.4724 23.0276 12.3577C23.1276 12.2341 23.1276 11.6977 23.0276 11.5741C22.9691 9.39121 22.2428 7.39739 21.2794 5.9076C19.6121 3.32935 15.9609 0.84985 12.1166 0.964505Z" fill="#2980B9"/>
<path fill-rule="evenodd" clip-rule="evenodd" d="M12.1167 0.964521C15.9611 0.849866 19.6122 3.32937 21.2795 5.90761C22.2429 7.39741 22.9692 9.39122 23.0277 11.5741C23.0277 11.8353 23.0277 12.0965 23.0277 12.3577C22.9675 15.4724 21.7746 17.4543 20.3753 19.2298C20.2492 19.3047 20.1487 19.4051 20.0739 19.5312C19.8477 19.707 19.6468 19.9079 19.4711 20.1341C19.3134 20.2778 19.0907 20.3565 18.9888 20.556C17.4586 21.7787 15.671 22.744 13.1415 22.9673C12.718 22.9256 12.4799 23.0692 12.0564 23.0276C8.79014 23.0387 6.66654 21.907 4.88292 20.4355C4.82849 20.3292 4.74813 20.2488 4.6418 20.1943C4.38566 19.8879 4.10433 19.6065 3.79786 19.3504C2.36442 17.7497 1.2556 15.8243 1.0249 13.0208C1.0249 12.3377 1.0249 11.6545 1.0249 10.9713C1.22956 8.30254 2.25784 6.45732 3.55673 4.88282C3.9787 4.42065 4.40929 3.96715 4.88292 3.55663C6.42655 2.26703 8.25496 1.26213 10.8508 1.0248C11.2533 0.985258 11.8145 1.10437 12.1167 0.964521ZM11.8756 1.92903C11.6742 1.81045 11.1036 1.83842 10.9714 1.98931C10.3154 1.99642 9.87557 2.2197 9.28348 2.29072C9.70642 3.19398 10.4141 3.81246 10.9714 4.58142C12.0777 3.71849 13.1779 2.84953 14.5883 2.29072C13.8112 2.04296 12.9003 1.92915 11.8756 1.92903ZM10.3685 5.3048C10.3685 5.26459 10.3685 5.22444 10.3685 5.18423C9.53841 4.46718 9.04916 3.40912 8.25869 2.65241C7.09869 3.0798 6.20249 3.77105 5.30489 4.46085C4.993 4.71162 4.71172 4.9929 4.46095 5.3048C4.15545 5.74274 3.74451 6.07525 3.55673 6.63099C4.88925 7.40832 6.23878 8.16865 7.5956 8.92169C8.29329 7.91137 8.95513 6.8653 9.76573 5.96789C10.021 5.80115 10.1602 5.51837 10.3685 5.3048ZM15.6733 3.0141C13.9478 3.37832 12.7483 4.26862 11.6947 5.3048C12.5219 5.92443 13.2533 6.63967 14.2266 7.11324C14.9398 5.69644 15.773 4.39979 16.5173 3.0141C16.457 3.0141 16.3967 3.0141 16.3364 3.0141C16.252 2.91421 15.7577 2.91421 15.6733 3.0141ZM18.1449 5.66648C18.0265 4.80024 17.8683 3.97384 17.3009 3.55663C16.6279 4.99344 15.7484 6.22385 15.0705 7.65578C15.9698 8.06256 16.8437 8.49478 17.9037 8.74085C18.0428 8.29717 18.0941 7.76579 18.1449 7.23381C18.2828 7.13066 18.167 6.77368 18.2052 6.57071C18.2052 6.55063 18.2052 6.5305 18.2052 6.51043C18.1663 6.2479 18.2838 5.829 18.1449 5.66648ZM19.6519 5.42536C19.4171 5.13769 19.2357 4.79668 18.8683 4.6417C18.8818 4.68848 18.8699 4.76063 18.9285 4.76226C18.942 4.80904 18.9302 4.8812 18.9888 4.88282C18.9848 5.18827 19.0924 5.38202 19.0491 5.72677C19.0491 6.16881 19.0491 6.61092 19.0491 7.05296C19.075 7.82228 18.9006 8.39139 18.808 9.04225C19.6141 9.12026 20.328 9.29049 21.159 9.34366C21.1965 9.45458 21.9418 9.45036 21.7015 9.28338C21.2649 7.75078 20.5488 6.49765 19.6519 5.42536ZM11.0919 5.90761C10.046 6.93143 9.14971 8.10475 8.43954 9.46422C9.65506 9.9768 10.6087 10.7512 11.8153 11.2727C12.4708 10.2001 13.1148 9.11604 13.684 7.95719C13.0429 7.43286 12.3053 7.00504 11.6947 6.45015C11.5511 6.21197 11.3055 6.07586 11.0919 5.90761ZM3.43617 13.8045C4.23279 13.7513 4.67598 14.0517 5.42546 14.0456C5.78914 12.42 6.51282 11.1544 7.11334 9.76563C5.67599 9.05292 4.40103 8.17782 2.95391 7.47493C2.23735 9.09138 1.67793 11.2946 2.04969 13.6237C1.98893 13.805 2.18406 13.7305 2.29082 13.7442C2.55304 13.8838 3.07375 13.7651 3.43617 13.8045ZM14.6485 8.49972C14.0117 9.37006 13.322 10.7097 12.7195 11.8152C13.8258 12.4571 14.8956 13.1354 16.0953 13.6839C16.6761 12.396 17.3411 11.1923 17.6626 9.64507C16.5349 9.38634 15.6677 8.86702 14.6485 8.49972ZM20.6164 10.1876C19.8241 10.1963 19.2272 10.0094 18.5668 9.8862C18.2098 11.5385 17.4658 12.8039 16.879 14.2265C18.3136 14.9017 19.5188 15.8064 20.9781 16.4569C21.6169 15.3675 21.9667 13.9893 22.0632 12.3577C22.1633 12.1946 22.1633 11.6167 22.0632 11.4535C22.0518 11.0428 21.9422 10.7306 21.9426 10.3082C21.6828 10.0857 21.0585 10.2278 20.6164 10.1876ZM7.95728 10.3082C7.26501 11.5047 6.67311 12.8017 6.32968 14.347C7.4854 14.638 8.47113 15.0991 9.46432 15.5527C10.0298 14.3499 10.7631 13.3149 11.3331 12.1166C10.1146 11.6069 9.15032 10.8432 7.95728 10.3082ZM13.4429 17.542C14.1692 16.5603 14.9801 15.6632 15.5528 14.5279C14.3733 13.9592 13.314 13.2703 12.177 12.6591C11.5836 13.834 10.854 14.8727 10.3083 16.0952C11.1682 16.6016 11.9781 17.1581 12.6592 17.8434C12.7368 17.9467 12.7839 18.0805 12.9607 18.0845C13.1806 17.9628 13.2868 17.7274 13.4429 17.542ZM2.29082 14.6484C2.71664 16.212 3.47258 17.4453 4.34039 18.5667C4.46198 18.8176 5.04761 19.4647 5.06377 19.2298C4.99505 18.9369 4.91355 18.6567 4.94321 18.2653C4.94321 17.7429 4.94321 17.2205 4.94321 16.698C4.94097 16.0327 5.07293 15.5015 5.18433 14.9498C4.42786 14.8623 3.73474 14.7116 2.95391 14.6484C2.86952 14.5486 2.37521 14.5486 2.29082 14.6484ZM13.7443 18.5667C13.7242 18.5667 13.7041 18.5667 13.684 18.5667C13.6707 18.6137 13.6336 18.6369 13.5635 18.627C13.5755 18.9365 13.8271 19.0064 13.9854 19.1696C14.6786 19.7824 15.0442 20.723 15.7336 21.3397C16.8224 20.9214 17.7249 20.3169 18.5668 19.6518C19.0222 19.3437 19.3836 18.9415 19.7122 18.5065C19.9436 18.0748 20.3659 17.834 20.4959 17.3008C19.0326 16.6542 17.8077 15.7693 16.3967 15.0704C15.5597 16.283 14.7405 17.5134 13.7443 18.5667ZM5.84743 18.3256C5.98427 19.1734 6.10803 20.0342 6.69137 20.4355C7.3734 19.0076 8.25869 17.7831 8.92179 16.3363C8.04813 15.8637 7.06168 15.5038 6.02827 15.191C6.01923 15.7245 5.89632 16.1441 5.84743 16.6377C5.7083 16.8201 5.82615 17.2595 5.78715 17.542C5.78715 17.562 5.78715 17.5822 5.78715 17.6022C5.82567 17.825 5.70908 18.2028 5.84743 18.3256ZM11.8153 18.2653C11.1184 17.8169 10.5926 17.1973 9.76573 16.8789C9.07141 18.2743 8.25514 19.5478 7.53531 20.9177C9.61503 21.1062 10.7779 19.8621 11.9962 18.9887C12.0913 18.8829 12.273 18.8636 12.2976 18.6873C12.1957 18.4878 11.9729 18.4091 11.8153 18.2653ZM13.4429 19.8929C13.2726 19.7015 13.1857 19.4268 12.9004 19.3504C12.7743 19.4252 12.6738 19.5257 12.599 19.6518C11.7271 20.5281 10.605 21.1542 9.40404 21.7014C9.85429 21.8539 10.4073 21.9038 10.9111 22.0028C11.1458 22.1311 11.7636 22.1935 12.0564 22.0631C13.0674 22.0693 13.8555 21.8528 14.7088 21.7014C14.3835 21.0019 13.8941 20.4665 13.4429 19.8929Z" fill="white"/>
<path fill-rule="evenodd" clip-rule="evenodd" d="M18.1447 7.23382C18.0939 7.7658 18.0426 8.29718 17.9035 8.74086C16.8435 8.49479 15.9696 8.06257 15.0703 7.65579C15.7482 6.22386 16.6277 4.99345 17.3007 3.55664C17.8681 3.97385 18.0263 4.80025 18.1447 5.6665C18.1836 5.92902 18.066 6.34792 18.205 6.51044C18.205 6.53051 18.205 6.55065 18.205 6.57072C18.067 6.67386 18.1828 7.03085 18.1447 7.23382Z" fill="#2980B9"/>
<path fill-rule="evenodd" clip-rule="evenodd" d="M19.4104 5.18416C19.4649 5.29043 19.5453 5.37085 19.6516 5.42528C20.5485 6.49757 21.2646 7.75071 21.7011 9.28331C21.7011 9.30338 21.7011 9.32351 21.7011 9.34359C21.5203 9.34359 21.3394 9.34359 21.1586 9.34359C20.3277 9.29042 19.6137 9.12018 18.8076 9.04218C18.9002 8.39132 19.0746 7.8222 19.0487 7.05289C19.1491 6.75027 19.1491 6.02931 19.0487 5.72669C19.0921 5.38194 18.9845 5.1882 18.9885 4.88275C19.1037 4.77147 19.2444 5.14624 19.4104 5.18416Z" fill="#2980B9"/>
<path fill-rule="evenodd" clip-rule="evenodd" d="M11.0918 5.90759C11.2455 6.13576 11.5024 6.2606 11.6947 6.45013C12.3053 7.00502 13.0429 7.43284 13.684 7.95717C13.1147 9.11602 12.4707 10.2001 11.8152 11.2727C10.6086 10.7512 9.65497 9.97678 8.43945 9.46421C9.14963 8.10474 10.046 6.93142 11.0918 5.90759Z" fill="#2980B9"/>
<path fill-rule="evenodd" clip-rule="evenodd" d="M2.04955 13.6237C1.67779 11.2947 2.2372 9.09143 2.95377 7.47498C4.40089 8.17786 5.67585 9.05297 7.1132 9.76568C6.51268 11.1544 5.789 12.4201 5.42532 14.0457C4.67584 14.0517 4.23265 13.7514 3.43602 13.8045C3.25753 13.6995 2.69607 13.7315 2.59208 13.7443C2.52487 13.5904 2.12586 13.7684 2.04955 13.6237Z" fill="#2980B9"/>
<path fill-rule="evenodd" clip-rule="evenodd" d="M11.333 12.1166C10.763 13.3148 10.0297 14.3499 9.46423 15.5526C8.47103 15.099 7.48531 14.638 6.32959 14.347C6.67301 12.8016 7.26492 11.5046 7.95719 10.3081C9.15023 10.8432 10.1145 11.6069 11.333 12.1166Z" fill="#2980B9"/>
<path fill-rule="evenodd" clip-rule="evenodd" d="M19.712 18.5065C19.3175 18.8756 18.9761 19.2977 18.5666 19.6518C17.7247 20.3169 16.8221 20.9214 15.7334 21.3397C15.044 20.723 14.6784 19.7825 13.9852 19.1696C13.9086 18.9649 13.6509 18.9413 13.6235 18.6873C13.6912 18.6745 13.7174 18.6205 13.7441 18.5668C14.7403 17.5134 15.5595 16.283 16.3965 15.0704C17.8074 15.7693 19.0324 16.6542 20.4956 17.3009C20.3657 17.834 19.9434 18.0748 19.712 18.5065Z" fill="#2980B9"/>
<path fill-rule="evenodd" clip-rule="evenodd" d="M12.5987 19.6518C12.7563 19.6084 12.7835 19.4346 12.9604 19.4106C13.1718 19.5208 13.2128 19.8013 13.4427 19.8929C13.8939 20.4665 14.3833 21.0018 14.7086 21.7013C13.8552 21.8527 13.0672 22.0693 12.0562 22.063C11.9912 21.9633 11.5184 21.9633 11.4534 22.063C11.3032 22.0123 11.1305 21.9841 10.9108 22.0028C10.4071 21.9037 9.85405 21.8539 9.40381 21.7013C10.6048 21.1542 11.7269 20.5281 12.5987 19.6518Z" fill="#2980B9"/>
<path fill-rule="evenodd" clip-rule="evenodd" d="M10.9711 1.98931C11.287 1.9837 11.5138 1.889 11.8753 1.92903C12.9 1.92915 13.8109 2.04296 14.588 2.29072C13.1776 2.84953 12.0774 3.71848 10.9711 4.58142C10.4138 3.81246 9.70614 3.19397 9.2832 2.29072C9.87529 2.2197 10.3151 1.99642 10.9711 1.98931Z" fill="#2980B9"/>
<path fill-rule="evenodd" clip-rule="evenodd" d="M5.30481 4.46079C6.2024 3.77099 7.09861 3.07974 8.2586 2.65234C9.04908 3.40906 9.53832 4.46712 10.3685 5.18417C10.3685 5.22438 10.3685 5.26453 10.3685 5.30473C10.1085 5.46671 9.96451 5.74467 9.76564 5.96783C8.95504 6.86524 8.29321 7.91131 7.59551 8.92163C6.23869 8.16859 4.88917 7.40826 3.55664 6.63093C3.74442 6.07519 4.15536 5.74268 4.46086 5.30473C4.76734 5.0486 5.04867 4.76726 5.30481 4.46079Z" fill="#2980B9"/>
<path fill-rule="evenodd" clip-rule="evenodd" d="M15.6734 3.01404C15.8945 3.01404 16.1155 3.01404 16.3365 3.01404C16.3968 3.01404 16.4571 3.01404 16.5174 3.01404C15.7731 4.39973 14.9398 5.69639 14.2267 7.11319C13.2534 6.63961 12.5219 5.92437 11.6948 5.30474C12.7484 4.26856 13.9478 3.37826 15.6734 3.01404Z" fill="#2980B9"/>
<path fill-rule="evenodd" clip-rule="evenodd" d="M17.6623 9.64511C17.3408 11.1923 16.6758 12.3961 16.095 13.684C14.8953 13.1355 13.8255 12.4572 12.7192 11.8152C13.3218 10.7097 14.0114 9.37004 14.6482 8.49976C15.6674 8.86705 16.5346 9.38638 17.6623 9.64511Z" fill="#2980B9"/>
<path fill-rule="evenodd" clip-rule="evenodd" d="M22.0631 12.3578C21.9666 13.9894 21.6168 15.3676 20.9781 16.4569C19.5187 15.8064 18.3135 14.9017 16.8789 14.2265C17.4657 12.804 18.2097 11.5385 18.5668 9.88623C19.2272 10.0094 19.824 10.1963 20.6164 10.1876C20.9926 10.2936 21.5199 10.2486 21.9426 10.3082C21.9421 10.7306 22.0518 11.0429 22.0631 11.4536C22.0631 11.755 22.0631 12.0564 22.0631 12.3578Z" fill="#2980B9"/>
<path fill-rule="evenodd" clip-rule="evenodd" d="M12.6591 17.8434C11.978 17.1582 11.1681 16.6017 10.3081 16.0952C10.8538 14.8727 11.5834 13.834 12.1768 12.6592C13.3138 13.2704 14.3731 13.9592 15.5526 14.5279C14.9799 15.6633 14.1691 16.5604 13.4427 17.542C13.1949 17.7058 12.9852 18.2795 12.6591 17.8434Z" fill="#2980B9"/>
<path fill-rule="evenodd" clip-rule="evenodd" d="M2.29053 14.6484C2.51152 14.6484 2.73263 14.6484 2.95362 14.6484C3.73445 14.7116 4.42757 14.8623 5.18404 14.9498C5.07264 15.5015 4.94069 16.0327 4.94292 16.698C4.84261 17.0807 4.84261 17.8827 4.94292 18.2653C4.91326 18.6567 4.99476 18.9369 5.06348 19.2298C4.78655 19.0447 4.61703 18.7519 4.3401 18.5667C3.47229 17.4453 2.71636 16.212 2.29053 14.6484Z" fill="#2980B9"/>
<path fill-rule="evenodd" clip-rule="evenodd" d="M5.84739 16.6377C5.89628 16.144 6.01919 15.7244 6.02824 15.1909C7.06164 15.5038 8.04809 15.8637 8.92175 16.3363C8.25865 17.783 7.37336 19.0075 6.69133 20.4354C6.10799 20.0342 5.98423 19.1734 5.84739 18.3256C5.80887 18.1028 5.92546 17.725 5.78711 17.6022C5.78711 17.5821 5.78711 17.562 5.78711 17.5419C5.92624 17.3595 5.80839 16.9202 5.84739 16.6377Z" fill="#2980B9"/>
<path fill-rule="evenodd" clip-rule="evenodd" d="M11.996 18.9886C10.7778 19.862 9.61487 21.1061 7.53516 20.9177C8.25498 19.5477 9.07125 18.2742 9.76558 16.8788C10.5925 17.1973 11.1182 17.8168 11.8151 18.2653C11.8944 18.4674 12.1273 18.5157 12.2371 18.6872C12.1963 18.8273 12.0368 18.8486 11.996 18.9886Z" fill="#2980B9"/>
</svg>
